<?xml version="1.0" standalone="no"?>
<!DOCTYPE svg PUBLIC "-//W3C//DTD SVG 20010904//EN"
 "http://www.w3.org/TR/2001/REC-SVG-20010904/DTD/svg10.dtd">
<svg version="1.0" xmlns="http://www.w3.org/2000/svg"
 width="500.000000pt" height="500.000000pt" viewBox="0 0 500.000000 500.000000"
 preserveAspectRatio="xMidYMid meet">
<metadata>
Created by potrace 1.14, written by Peter Selinger 2001-2017
</metadata>
<g transform="translate(0.000000,500.000000) scale(0.100000,-0.100000)"
fill="#000000" stroke="none">
<path d="M0 2500 l0 -2500 2500 0 2500 0 0 2500 0 2500 -2500 0 -2500 0 0
-2500z m1708 1255 c83 -168 152 -307 152 -310 0 -3 -53 -5 -118 -5 l-117 0
-107 293 c-59 160 -110 300 -113 310 -6 15 1 17 72 17 l78 0 153 -305z m2187
-5 l-155 -310 -310 0 -310 0 155 310 155 310 310 0 310 0 -155 -310z m-1559
-1252 l157 -313 156 313 156 312 307 0 c170 0 308 -3 308 -6 0 -11 -902 -1805
-906 -1801 -6 6 -654 1787 -654 1798 0 5 71 9 160 9 l160 0 156 -312z"/>
</g>
</svg>
