<svg width="500" height="500" viewBox="0 0 500 500" fill="none" xmlns="http://www.w3.org/2000/svg">
<rect width="500" height="500" fill="#1E1E1E"/>
<path d="M166.24 8.745C166.66 9.515 167.138 10.4717 167.675 11.615C168.235 12.735 168.807 13.96 169.39 15.29C169.997 16.5967 170.592 17.9383 171.175 19.315C171.758 20.6917 172.307 21.9867 172.82 23.2C173.333 21.9867 173.882 20.6917 174.465 19.315C175.048 17.9383 175.632 16.5967 176.215 15.29C176.822 13.96 177.393 12.735 177.93 11.615C178.49 10.4717 178.98 9.515 179.4 8.745H184.37C184.603 10.355 184.813 12.1633 185 14.17C185.21 16.1533 185.385 18.23 185.525 20.4C185.688 22.5467 185.828 24.705 185.945 26.875C186.085 29.045 186.202 31.0867 186.295 33H180.975C180.905 30.6433 180.812 28.0767 180.695 25.3C180.578 22.5233 180.403 19.7233 180.17 16.9C179.75 17.88 179.283 18.965 178.77 20.155C178.257 21.345 177.743 22.535 177.23 23.725C176.74 24.915 176.262 26.0583 175.795 27.155C175.328 28.2283 174.932 29.15 174.605 29.92H170.79C170.463 29.15 170.067 28.2283 169.6 27.155C169.133 26.0583 168.643 24.915 168.13 23.725C167.64 22.535 167.138 21.345 166.625 20.155C166.112 18.965 165.645 17.88 165.225 16.9C164.992 19.7233 164.817 22.5233 164.7 25.3C164.583 28.0767 164.49 30.6433 164.42 33H159.1C159.193 31.0867 159.298 29.045 159.415 26.875C159.555 24.705 159.695 22.5467 159.835 20.4C159.998 18.23 160.173 16.1533 160.36 14.17C160.57 12.1633 160.792 10.355 161.025 8.745H166.24ZM199.588 18.72C200.568 17.0633 201.502 15.4067 202.388 13.75C203.275 12.0933 204.092 10.425 204.838 8.745H210.858C209.528 11.3583 208.152 13.89 206.728 16.34C205.305 18.79 203.8 21.2517 202.213 23.725V33H196.753V23.795C195.167 21.3217 193.65 18.8483 192.203 16.375C190.78 13.9017 189.403 11.3583 188.073 8.745H194.408C195.155 10.425 195.96 12.0933 196.823 13.75C197.687 15.4067 198.608 17.0633 199.588 18.72ZM228.861 28.835C229.631 28.835 230.261 28.7767 230.751 28.66C231.265 28.52 231.673 28.345 231.976 28.135C232.28 27.9017 232.49 27.6333 232.606 27.33C232.723 27.0267 232.781 26.6883 232.781 26.315C232.781 25.5217 232.408 24.8683 231.661 24.355C230.915 23.8183 229.631 23.2467 227.811 22.64C227.018 22.36 226.225 22.045 225.431 21.695C224.638 21.3217 223.926 20.8667 223.296 20.33C222.666 19.77 222.153 19.105 221.756 18.335C221.36 17.5417 221.161 16.585 221.161 15.465C221.161 14.345 221.371 13.3417 221.791 12.455C222.211 11.545 222.806 10.775 223.576 10.145C224.346 9.515 225.28 9.03667 226.376 8.71C227.473 8.36 228.71 8.185 230.086 8.185C231.72 8.185 233.131 8.36 234.321 8.71C235.511 9.06 236.491 9.445 237.261 9.865L235.686 14.17C235.01 13.82 234.251 13.5167 233.411 13.26C232.595 12.98 231.603 12.84 230.436 12.84C229.13 12.84 228.185 13.0267 227.601 13.4C227.041 13.75 226.761 14.2983 226.761 15.045C226.761 15.4883 226.866 15.8617 227.076 16.165C227.286 16.4683 227.578 16.7483 227.951 17.005C228.348 17.2383 228.791 17.46 229.281 17.67C229.795 17.8567 230.355 18.055 230.961 18.265C232.221 18.7317 233.318 19.1983 234.251 19.665C235.185 20.1083 235.955 20.6333 236.561 21.24C237.191 21.8467 237.658 22.5583 237.961 23.375C238.265 24.1917 238.416 25.1833 238.416 26.35C238.416 28.6133 237.623 30.375 236.036 31.635C234.45 32.8717 232.058 33.49 228.861 33.49C227.788 33.49 226.82 33.42 225.956 33.28C225.093 33.1633 224.323 33.0117 223.646 32.825C222.993 32.6383 222.421 32.44 221.931 32.23C221.465 32.02 221.068 31.8217 220.741 31.635L222.281 27.295C223.005 27.6917 223.891 28.0533 224.941 28.38C226.015 28.6833 227.321 28.835 228.861 28.835ZM256.932 33C256.442 32.2067 255.859 31.355 255.182 30.445C254.529 29.5117 253.806 28.59 253.012 27.68C252.242 26.7467 251.437 25.86 250.597 25.02C249.757 24.1567 248.917 23.3983 248.077 22.745V33H242.617V8.745H248.077V17.915C249.501 16.4217 250.924 14.87 252.347 13.26C253.794 11.6267 255.136 10.1217 256.372 8.745H262.847C261.191 10.705 259.522 12.595 257.842 14.415C256.186 16.235 254.436 18.0667 252.592 19.91C254.529 21.52 256.396 23.4333 258.192 25.65C260.012 27.8667 261.751 30.3167 263.407 33H256.932ZM266.543 8.745H272.003V33H266.543V8.745ZM293.822 28.31V33H277.617V8.745H283.077V28.31H293.822ZM313.544 28.31V33H297.339V8.745H302.799V28.31H313.544ZM324.257 28.835C325.027 28.835 325.657 28.7767 326.147 28.66C326.66 28.52 327.068 28.345 327.372 28.135C327.675 27.9017 327.885 27.6333 328.002 27.33C328.118 27.0267 328.177 26.6883 328.177 26.315C328.177 25.5217 327.803 24.8683 327.057 24.355C326.31 23.8183 325.027 23.2467 323.207 22.64C322.413 22.36 321.62 22.045 320.827 21.695C320.033 21.3217 319.322 20.8667 318.692 20.33C318.062 19.77 317.548 19.105 317.152 18.335C316.755 17.5417 316.557 16.585 316.557 15.465C316.557 14.345 316.767 13.3417 317.187 12.455C317.607 11.545 318.202 10.775 318.972 10.145C319.742 9.515 320.675 9.03667 321.772 8.71C322.868 8.36 324.105 8.185 325.482 8.185C327.115 8.185 328.527 8.36 329.717 8.71C330.907 9.06 331.887 9.445 332.657 9.865L331.082 14.17C330.405 13.82 329.647 13.5167 328.807 13.26C327.99 12.98 326.998 12.84 325.832 12.84C324.525 12.84 323.58 13.0267 322.997 13.4C322.437 13.75 322.157 14.2983 322.157 15.045C322.157 15.4883 322.262 15.8617 322.472 16.165C322.682 16.4683 322.973 16.7483 323.347 17.005C323.743 17.2383 324.187 17.46 324.677 17.67C325.19 17.8567 325.75 18.055 326.357 18.265C327.617 18.7317 328.713 19.1983 329.647 19.665C330.58 20.1083 331.35 20.6333 331.957 21.24C332.587 21.8467 333.053 22.5583 333.357 23.375C333.66 24.1917 333.812 25.1833 333.812 26.35C333.812 28.6133 333.018 30.375 331.432 31.635C329.845 32.8717 327.453 33.49 324.257 33.49C323.183 33.49 322.215 33.42 321.352 33.28C320.488 33.1633 319.718 33.0117 319.042 32.825C318.388 32.6383 317.817 32.44 317.327 32.23C316.86 32.02 316.463 31.8217 316.137 31.635L317.677 27.295C318.4 27.6917 319.287 28.0533 320.337 28.38C321.41 28.6833 322.717 28.835 324.257 28.835ZM342.773 17.81C342.773 18.86 342.435 19.665 341.758 20.225C341.105 20.7617 340.358 21.03 339.518 21.03C338.678 21.03 337.92 20.7617 337.243 20.225C336.59 19.665 336.263 18.86 336.263 17.81C336.263 16.76 336.59 15.9667 337.243 15.43C337.92 14.87 338.678 14.59 339.518 14.59C340.358 14.59 341.105 14.87 341.758 15.43C342.435 15.9667 342.773 16.76 342.773 17.81ZM342.773 30.235C342.773 31.285 342.435 32.09 341.758 32.65C341.105 33.1867 340.358 33.455 339.518 33.455C338.678 33.455 337.92 33.1867 337.243 32.65C336.59 32.09 336.263 31.285 336.263 30.235C336.263 29.185 336.59 28.3917 337.243 27.855C337.92 27.295 338.678 27.015 339.518 27.015C340.358 27.015 341.105 27.295 341.758 27.855C342.435 28.3917 342.773 29.185 342.773 30.235Z" fill="white"/>
<path d="M22.358 98H20.5114L25.8523 83.4545H27.6705L33.0114 98H31.1648L26.8182 85.7557H26.7045L22.358 98ZM23.0398 92.3182H30.483V93.8807H23.0398V92.3182ZM42.777 89.5341L41.2713 89.9602C41.1766 89.7093 41.0369 89.4654 40.8523 89.2287C40.6723 88.9872 40.4261 88.7884 40.1136 88.6321C39.8011 88.4759 39.401 88.3977 38.9134 88.3977C38.2457 88.3977 37.6894 88.5516 37.2443 88.8594C36.804 89.1624 36.5838 89.5483 36.5838 90.017C36.5838 90.4337 36.7353 90.7628 37.0384 91.0043C37.3414 91.2457 37.8149 91.447 38.4588 91.608L40.0781 92.0057C41.0535 92.2424 41.7803 92.6046 42.2585 93.0923C42.7367 93.5753 42.9759 94.1979 42.9759 94.9602C42.9759 95.5852 42.7959 96.1439 42.4361 96.6364C42.081 97.1288 41.5838 97.517 40.9446 97.8011C40.3054 98.0852 39.562 98.2273 38.7145 98.2273C37.6018 98.2273 36.6809 97.9858 35.9517 97.5028C35.2225 97.0199 34.7609 96.3144 34.5668 95.3864L36.1577 94.9886C36.3092 95.5758 36.5956 96.0161 37.017 96.3097C37.4432 96.6032 37.9995 96.75 38.6861 96.75C39.4673 96.75 40.0876 96.5843 40.5469 96.2528C41.0109 95.9167 41.2429 95.5142 41.2429 95.0455C41.2429 94.6667 41.1103 94.3494 40.8452 94.0938C40.58 93.8333 40.1728 93.6392 39.6236 93.5114L37.8054 93.0852C36.8063 92.8485 36.0724 92.4815 35.6037 91.9844C35.1397 91.4825 34.9077 90.8551 34.9077 90.1023C34.9077 89.4867 35.0805 88.9422 35.4261 88.4688C35.7765 87.9953 36.2524 87.6236 36.8537 87.3537C37.4598 87.0838 38.1463 86.9489 38.9134 86.9489C39.9929 86.9489 40.8404 87.1856 41.456 87.6591C42.0762 88.1326 42.5166 88.7576 42.777 89.5341ZM53.2262 89.5341L51.7205 89.9602C51.6258 89.7093 51.4862 89.4654 51.3015 89.2287C51.1216 88.9872 50.8754 88.7884 50.5629 88.6321C50.2504 88.4759 49.8503 88.3977 49.3626 88.3977C48.695 88.3977 48.1386 88.5516 47.6935 88.8594C47.2532 89.1624 47.033 89.5483 47.033 90.017C47.033 90.4337 47.1845 90.7628 47.4876 91.0043C47.7906 91.2457 48.2641 91.447 48.908 91.608L50.5273 92.0057C51.5027 92.2424 52.2295 92.6046 52.7077 93.0923C53.186 93.5753 53.4251 94.1979 53.4251 94.9602C53.4251 95.5852 53.2451 96.1439 52.8853 96.6364C52.5302 97.1288 52.033 97.517 51.3938 97.8011C50.7546 98.0852 50.0112 98.2273 49.1637 98.2273C48.051 98.2273 47.1301 97.9858 46.4009 97.5028C45.6718 97.0199 45.2101 96.3144 45.016 95.3864L46.6069 94.9886C46.7584 95.5758 47.0449 96.0161 47.4663 96.3097C47.8924 96.6032 48.4487 96.75 49.1353 96.75C49.9165 96.75 50.5368 96.5843 50.9961 96.2528C51.4601 95.9167 51.6921 95.5142 51.6921 95.0455C51.6921 94.6667 51.5595 94.3494 51.2944 94.0938C51.0292 93.8333 50.622 93.6392 50.0728 93.5114L48.2546 93.0852C47.2556 92.8485 46.5217 92.4815 46.0529 91.9844C45.5889 91.4825 45.3569 90.8551 45.3569 90.1023C45.3569 89.4867 45.5297 88.9422 45.8754 88.4688C46.2257 87.9953 46.7016 87.6236 47.3029 87.3537C47.909 87.0838 48.5955 86.9489 49.3626 86.9489C50.4421 86.9489 51.2897 87.1856 51.9052 87.6591C52.5254 88.1326 52.9658 88.7576 53.2262 89.5341ZM60.522 98.2273C59.4709 98.2273 58.5642 97.9953 57.8018 97.5312C57.0443 97.0625 56.4595 96.4091 56.0476 95.571C55.6404 94.7282 55.4368 93.7481 55.4368 92.6307C55.4368 91.5133 55.6404 90.5284 56.0476 89.6761C56.4595 88.8191 57.0324 88.1515 57.7663 87.6733C58.505 87.1903 59.3667 86.9489 60.3516 86.9489C60.9197 86.9489 61.4808 87.0436 62.0348 87.233C62.5888 87.4223 63.093 87.7301 63.5476 88.1562C64.0021 88.5777 64.3643 89.1364 64.6342 89.8324C64.9041 90.5284 65.0391 91.3854 65.0391 92.4034V93.1136H56.63V91.6648H63.3345C63.3345 91.0492 63.2114 90.5 62.9652 90.017C62.7237 89.5341 62.3781 89.1529 61.9283 88.8736C61.4832 88.5942 60.9576 88.4545 60.3516 88.4545C59.6839 88.4545 59.1063 88.6203 58.6186 88.9517C58.1357 89.2784 57.764 89.7045 57.5036 90.2301C57.2431 90.7557 57.1129 91.3191 57.1129 91.9205V92.8864C57.1129 93.7102 57.255 94.4086 57.5391 94.9815C57.8279 95.5497 58.228 95.983 58.7393 96.2812C59.2507 96.5748 59.8449 96.7216 60.522 96.7216C60.9624 96.7216 61.3601 96.66 61.7152 96.5369C62.075 96.4091 62.3852 96.2197 62.6456 95.9688C62.906 95.7131 63.1072 95.3958 63.2493 95.017L64.8686 95.4716C64.6982 96.0208 64.4117 96.5038 64.0092 96.9205C63.6068 97.3324 63.1096 97.6544 62.5178 97.8864C61.9259 98.1136 61.2607 98.2273 60.522 98.2273ZM67.5888 98V87.0909H69.2081V88.7955H69.3501C69.5774 88.2131 69.9444 87.7609 70.451 87.4389C70.9576 87.1122 71.5661 86.9489 72.2763 86.9489C72.996 86.9489 73.5949 87.1122 74.0732 87.4389C74.5561 87.7609 74.9325 88.2131 75.2024 88.7955H75.3161C75.5954 88.232 76.0144 87.7846 76.5732 87.4531C77.1319 87.117 77.8018 86.9489 78.5831 86.9489C79.5585 86.9489 80.3563 87.2543 80.9766 87.8651C81.5968 88.4711 81.907 89.4157 81.907 90.6989V98H80.2308V90.6989C80.2308 89.8939 80.0107 89.3187 79.5703 88.973C79.13 88.6274 78.6115 88.4545 78.0149 88.4545C77.2479 88.4545 76.6536 88.6866 76.2322 89.1506C75.8108 89.6098 75.6001 90.1922 75.6001 90.8977V98H73.8956V90.5284C73.8956 89.9081 73.6944 89.4086 73.2919 89.0298C72.8894 88.6463 72.371 88.4545 71.7365 88.4545C71.3009 88.4545 70.8937 88.5705 70.5149 88.8026C70.1409 89.0346 69.8378 89.3565 69.6058 89.7685C69.3786 90.1757 69.2649 90.6468 69.2649 91.1818V98H67.5888ZM85.1989 98V83.4545H86.875V88.8239H87.017C87.1402 88.6345 87.3106 88.393 87.5284 88.0994C87.7509 87.8011 88.0682 87.536 88.4801 87.304C88.8968 87.0672 89.4602 86.9489 90.1705 86.9489C91.089 86.9489 91.8987 87.1785 92.5994 87.6378C93.3002 88.0971 93.8471 88.7481 94.2401 89.5909C94.633 90.4337 94.8295 91.428 94.8295 92.5739C94.8295 93.7292 94.633 94.7306 94.2401 95.5781C93.8471 96.4209 93.3026 97.0743 92.6065 97.5384C91.9105 97.9976 91.108 98.2273 90.1989 98.2273C89.4981 98.2273 88.937 98.1113 88.5156 97.8793C88.0942 97.6425 87.7699 97.375 87.5426 97.0767C87.3153 96.7737 87.1402 96.5227 87.017 96.3239H86.8182V98H85.1989ZM86.8466 92.5455C86.8466 93.3693 86.9673 94.0961 87.2088 94.7259C87.4503 95.3509 87.803 95.8409 88.267 96.196C88.7311 96.5464 89.2992 96.7216 89.9716 96.7216C90.6723 96.7216 91.2571 96.5369 91.7259 96.1676C92.1993 95.7936 92.5545 95.2917 92.7912 94.6619C93.0327 94.0275 93.1534 93.322 93.1534 92.5455C93.1534 91.7784 93.035 91.0871 92.7983 90.4716C92.5663 89.8513 92.2135 89.3613 91.7401 89.0014C91.2713 88.6368 90.6818 88.4545 89.9716 88.4545C89.2898 88.4545 88.7169 88.6274 88.2528 88.973C87.7888 89.3139 87.4384 89.7921 87.2017 90.4077C86.965 91.0185 86.8466 91.7311 86.8466 92.5455ZM99.0696 83.4545V98H97.3935V83.4545H99.0696ZM103.219 102.091C102.935 102.091 102.682 102.067 102.459 102.02C102.237 101.977 102.083 101.935 101.998 101.892L102.424 100.415C102.831 100.519 103.191 100.557 103.503 100.528C103.816 100.5 104.093 100.36 104.334 100.109C104.58 99.8632 104.805 99.4631 105.009 98.9091L105.321 98.0568L101.287 87.0909H103.105L106.117 95.7841H106.23L109.242 87.0909H111.06L106.429 99.5909C106.221 100.154 105.963 100.621 105.655 100.99C105.347 101.364 104.99 101.641 104.583 101.821C104.18 102.001 103.726 102.091 103.219 102.091Z" fill="white"/>
<path d="M21.7614 127V112.455H26.8466C27.8598 112.455 28.6955 112.63 29.3537 112.98C30.0118 113.326 30.5019 113.792 30.8239 114.379C31.1458 114.962 31.3068 115.608 31.3068 116.318C31.3068 116.943 31.1955 117.459 30.973 117.866C30.7552 118.274 30.4664 118.596 30.1065 118.832C29.7514 119.069 29.3655 119.244 28.9489 119.358V119.5C29.3939 119.528 29.8414 119.685 30.2912 119.969C30.741 120.253 31.1174 120.66 31.4205 121.19C31.7235 121.721 31.875 122.369 31.875 123.136C31.875 123.866 31.7093 124.521 31.3778 125.104C31.0464 125.686 30.5232 126.148 29.8082 126.489C29.0933 126.83 28.1629 127 27.017 127H21.7614ZM23.5227 125.438H27.017C28.1676 125.438 28.9844 125.215 29.4673 124.77C29.955 124.32 30.1989 123.776 30.1989 123.136C30.1989 122.644 30.0734 122.189 29.8224 121.773C29.5715 121.351 29.214 121.015 28.75 120.764C28.286 120.509 27.7367 120.381 27.1023 120.381H23.5227V125.438ZM23.5227 118.847H26.7898C27.3201 118.847 27.7983 118.742 28.2244 118.534C28.6553 118.326 28.9962 118.032 29.2472 117.653C29.5028 117.275 29.6307 116.83 29.6307 116.318C29.6307 115.679 29.4081 115.137 28.9631 114.692C28.518 114.242 27.8125 114.017 26.8466 114.017H23.5227V118.847ZM37.7521 127.256C37.0608 127.256 36.4335 127.125 35.87 126.865C35.3066 126.6 34.8591 126.219 34.5277 125.722C34.1963 125.22 34.0305 124.614 34.0305 123.903C34.0305 123.278 34.1536 122.772 34.3999 122.384C34.6461 121.991 34.9751 121.683 35.3871 121.46C35.799 121.238 36.2536 121.072 36.7507 120.963C37.2526 120.849 37.7569 120.759 38.2635 120.693C38.9264 120.608 39.4638 120.544 39.8757 120.501C40.2924 120.454 40.5954 120.376 40.7848 120.267C40.9789 120.158 41.076 119.969 41.076 119.699V119.642C41.076 118.941 40.8842 118.397 40.5007 118.009C40.1219 117.62 39.5466 117.426 38.7749 117.426C37.9747 117.426 37.3473 117.601 36.8928 117.952C36.4382 118.302 36.1186 118.676 35.9339 119.074L34.343 118.506C34.6271 117.843 35.0059 117.327 35.4794 116.957C35.9576 116.583 36.4785 116.323 37.0419 116.176C37.6101 116.025 38.1688 115.949 38.718 115.949C39.0684 115.949 39.4709 115.991 39.9254 116.077C40.3847 116.157 40.8274 116.325 41.2536 116.581C41.6844 116.837 42.0419 117.223 42.326 117.739C42.6101 118.255 42.7521 118.946 42.7521 119.812V127H41.076V125.523H40.9908C40.8771 125.759 40.6877 126.013 40.4226 126.283C40.1574 126.553 39.8047 126.782 39.3643 126.972C38.924 127.161 38.3866 127.256 37.7521 127.256ZM38.0078 125.75C38.6707 125.75 39.2294 125.62 39.6839 125.359C40.1432 125.099 40.4889 124.763 40.7209 124.351C40.9576 123.939 41.076 123.506 41.076 123.051V121.517C41.005 121.602 40.8487 121.68 40.6072 121.751C40.3705 121.818 40.0959 121.877 39.7834 121.929C39.4756 121.976 39.175 122.019 38.8814 122.057C38.5926 122.09 38.3582 122.118 38.1783 122.142C37.7427 122.199 37.3355 122.291 36.9567 122.419C36.5826 122.542 36.2796 122.729 36.0476 122.98C35.8203 123.226 35.7067 123.562 35.7067 123.989C35.7067 124.571 35.9221 125.011 36.353 125.31C36.7886 125.603 37.3402 125.75 38.0078 125.75ZM53.5387 118.534L52.033 118.96C51.9383 118.709 51.7987 118.465 51.614 118.229C51.4341 117.987 51.1879 117.788 50.8754 117.632C50.5629 117.476 50.1628 117.398 49.6751 117.398C49.0075 117.398 48.4511 117.552 48.006 117.859C47.5657 118.162 47.3455 118.548 47.3455 119.017C47.3455 119.434 47.497 119.763 47.8001 120.004C48.1031 120.246 48.5766 120.447 49.2205 120.608L50.8398 121.006C51.8152 121.242 52.542 121.605 53.0202 122.092C53.4985 122.575 53.7376 123.198 53.7376 123.96C53.7376 124.585 53.5576 125.144 53.1978 125.636C52.8427 126.129 52.3455 126.517 51.7063 126.801C51.0671 127.085 50.3237 127.227 49.4762 127.227C48.3635 127.227 47.4426 126.986 46.7134 126.503C45.9843 126.02 45.5226 125.314 45.3285 124.386L46.9194 123.989C47.0709 124.576 47.3574 125.016 47.7788 125.31C48.2049 125.603 48.7612 125.75 49.4478 125.75C50.229 125.75 50.8493 125.584 51.3086 125.253C51.7726 124.917 52.0046 124.514 52.0046 124.045C52.0046 123.667 51.872 123.349 51.6069 123.094C51.3417 122.833 50.9345 122.639 50.3853 122.511L48.5671 122.085C47.5681 121.848 46.8342 121.482 46.3654 120.984C45.9014 120.482 45.6694 119.855 45.6694 119.102C45.6694 118.487 45.8422 117.942 46.1879 117.469C46.5382 116.995 47.0141 116.624 47.6154 116.354C48.2215 116.084 48.908 115.949 49.6751 115.949C50.7546 115.949 51.6022 116.186 52.2177 116.659C52.8379 117.133 53.2783 117.758 53.5387 118.534ZM57.9368 120.438V127H56.2607V112.455H57.9368V117.795H58.0788C58.3345 117.232 58.718 116.785 59.2294 116.453C59.7455 116.117 60.4321 115.949 61.2891 115.949C62.0324 115.949 62.6835 116.098 63.2422 116.396C63.8009 116.69 64.2341 117.142 64.5419 117.753C64.8544 118.359 65.0107 119.131 65.0107 120.068V127H63.3345V120.182C63.3345 119.315 63.1096 118.645 62.6598 118.172C62.2147 117.694 61.5968 117.455 60.8061 117.455C60.2569 117.455 59.7644 117.571 59.3288 117.803C58.898 118.035 58.5571 118.373 58.3061 118.818C58.0599 119.263 57.9368 119.803 57.9368 120.438Z" fill="white"/>
<path d="M33.4659 146H31.7045C31.6004 145.493 31.4181 145.048 31.1577 144.665C30.902 144.281 30.5895 143.959 30.2202 143.699C29.8556 143.434 29.4508 143.235 29.0057 143.102C28.5606 142.97 28.0966 142.903 27.6136 142.903C26.733 142.903 25.9351 143.126 25.2202 143.571C24.5099 144.016 23.9441 144.672 23.5227 145.538C23.1061 146.405 22.8977 147.468 22.8977 148.727C22.8977 149.987 23.1061 151.05 23.5227 151.916C23.9441 152.783 24.5099 153.438 25.2202 153.884C25.9351 154.329 26.733 154.551 27.6136 154.551C28.0966 154.551 28.5606 154.485 29.0057 154.352C29.4508 154.22 29.8556 154.023 30.2202 153.763C30.5895 153.498 30.902 153.173 31.1577 152.79C31.4181 152.402 31.6004 151.956 31.7045 151.455H33.4659C33.3333 152.198 33.0919 152.863 32.7415 153.45C32.3911 154.037 31.9555 154.537 31.4347 154.949C30.9138 155.356 30.3291 155.666 29.6804 155.879C29.0365 156.092 28.3475 156.199 27.6136 156.199C26.3731 156.199 25.2699 155.896 24.304 155.29C23.3381 154.684 22.5781 153.822 22.0241 152.705C21.4702 151.587 21.1932 150.261 21.1932 148.727C21.1932 147.193 21.4702 145.867 22.0241 144.75C22.5781 143.633 23.3381 142.771 24.304 142.165C25.2699 141.559 26.3731 141.256 27.6136 141.256C28.3475 141.256 29.0365 141.362 29.6804 141.575C30.3291 141.788 30.9138 142.101 31.4347 142.513C31.9555 142.92 32.3911 143.417 32.7415 144.004C33.0919 144.587 33.3333 145.252 33.4659 146Z" fill="white"/>
<path d="M33.4659 175H31.7045C31.6004 174.493 31.4181 174.048 31.1577 173.665C30.902 173.281 30.5895 172.959 30.2202 172.699C29.8556 172.434 29.4508 172.235 29.0057 172.102C28.5606 171.97 28.0966 171.903 27.6136 171.903C26.733 171.903 25.9351 172.126 25.2202 172.571C24.5099 173.016 23.9441 173.672 23.5227 174.538C23.1061 175.405 22.8977 176.468 22.8977 177.727C22.8977 178.987 23.1061 180.05 23.5227 180.916C23.9441 181.783 24.5099 182.438 25.2202 182.884C25.9351 183.329 26.733 183.551 27.6136 183.551C28.0966 183.551 28.5606 183.485 29.0057 183.352C29.4508 183.22 29.8556 183.023 30.2202 182.763C30.5895 182.498 30.902 182.173 31.1577 181.79C31.4181 181.402 31.6004 180.956 31.7045 180.455H33.4659C33.3333 181.198 33.0919 181.863 32.7415 182.45C32.3911 183.037 31.9555 183.537 31.4347 183.949C30.9138 184.356 30.3291 184.666 29.6804 184.879C29.0365 185.092 28.3475 185.199 27.6136 185.199C26.3731 185.199 25.2699 184.896 24.304 184.29C23.3381 183.684 22.5781 182.822 22.0241 181.705C21.4702 180.587 21.1932 179.261 21.1932 177.727C21.1932 176.193 21.4702 174.867 22.0241 173.75C22.5781 172.633 23.3381 171.771 24.304 171.165C25.2699 170.559 26.3731 170.256 27.6136 170.256C28.3475 170.256 29.0365 170.362 29.6804 170.575C30.3291 170.788 30.9138 171.101 31.4347 171.513C31.9555 171.92 32.3911 172.417 32.7415 173.004C33.0919 173.587 33.3333 174.252 33.4659 175ZM40.3462 182.443V173.068H41.9371V182.443H40.3462ZM36.4542 178.551V176.96H45.8292V178.551H36.4542ZM53.5298 182.443V173.068H55.1207V182.443H53.5298ZM49.6378 178.551V176.96H59.0128V178.551H49.6378Z" fill="white"/>
<path d="M33.4659 204H31.7045C31.6004 203.493 31.4181 203.048 31.1577 202.665C30.902 202.281 30.5895 201.959 30.2202 201.699C29.8556 201.434 29.4508 201.235 29.0057 201.102C28.5606 200.97 28.0966 200.903 27.6136 200.903C26.733 200.903 25.9351 201.126 25.2202 201.571C24.5099 202.016 23.9441 202.672 23.5227 203.538C23.1061 204.405 22.8977 205.468 22.8977 206.727C22.8977 207.987 23.1061 209.05 23.5227 209.916C23.9441 210.783 24.5099 211.438 25.2202 211.884C25.9351 212.329 26.733 212.551 27.6136 212.551C28.0966 212.551 28.5606 212.485 29.0057 212.352C29.4508 212.22 29.8556 212.023 30.2202 211.763C30.5895 211.498 30.902 211.173 31.1577 210.79C31.4181 210.402 31.6004 209.956 31.7045 209.455H33.4659C33.3333 210.198 33.0919 210.863 32.7415 211.45C32.3911 212.037 31.9555 212.537 31.4347 212.949C30.9138 213.356 30.3291 213.666 29.6804 213.879C29.0365 214.092 28.3475 214.199 27.6136 214.199C26.3731 214.199 25.2699 213.896 24.304 213.29C23.3381 212.684 22.5781 211.822 22.0241 210.705C21.4702 209.587 21.1932 208.261 21.1932 206.727C21.1932 205.193 21.4702 203.867 22.0241 202.75C22.5781 201.633 23.3381 200.771 24.304 200.165C25.2699 199.559 26.3731 199.256 27.6136 199.256C28.3475 199.256 29.0365 199.362 29.6804 199.575C30.3291 199.788 30.9138 200.101 31.4347 200.513C31.9555 200.92 32.3911 201.417 32.7415 202.004C33.0919 202.587 33.3333 203.252 33.4659 204ZM41.511 214L43.8974 199.455H45.3178L42.9315 214H41.511ZM34.8917 209.966L35.119 208.545H45.9712L45.744 209.966H34.8917ZM36.3974 214L38.7837 199.455H40.2042L37.8178 214H36.3974ZM35.744 204.909L35.9712 203.489H46.8235L46.5962 204.909H35.744Z" fill="white"/>
<path d="M27.3295 228.455H29.0909V238.852C29.0909 239.78 28.9205 240.569 28.5795 241.217C28.2386 241.866 27.758 242.358 27.1378 242.695C26.5175 243.031 25.786 243.199 24.9432 243.199C24.1477 243.199 23.4399 243.054 22.8196 242.766C22.1993 242.472 21.7116 242.055 21.3565 241.516C21.0014 240.976 20.8239 240.334 20.8239 239.591H22.5568C22.5568 240.003 22.6586 240.363 22.8622 240.67C23.0705 240.973 23.3546 241.21 23.7145 241.381C24.0743 241.551 24.4839 241.636 24.9432 241.636C25.4498 241.636 25.8807 241.53 26.2358 241.317C26.5909 241.104 26.8608 240.791 27.0455 240.379C27.2348 239.963 27.3295 239.454 27.3295 238.852V228.455ZM35.6037 243.256C34.9124 243.256 34.285 243.125 33.7216 242.865C33.1581 242.6 32.7107 242.219 32.3793 241.722C32.0478 241.22 31.8821 240.614 31.8821 239.903C31.8821 239.278 32.0052 238.772 32.2514 238.384C32.4976 237.991 32.8267 237.683 33.2386 237.46C33.6506 237.238 34.1051 237.072 34.6023 236.963C35.1042 236.849 35.6084 236.759 36.1151 236.693C36.7779 236.608 37.3153 236.544 37.7273 236.501C38.1439 236.454 38.447 236.376 38.6364 236.267C38.8305 236.158 38.9276 235.969 38.9276 235.699V235.642C38.9276 234.941 38.7358 234.397 38.3523 234.009C37.9735 233.62 37.3982 233.426 36.6264 233.426C35.8262 233.426 35.1989 233.601 34.7443 233.952C34.2898 234.302 33.9702 234.676 33.7855 235.074L32.1946 234.506C32.4787 233.843 32.8575 233.327 33.331 232.957C33.8092 232.583 34.33 232.323 34.8935 232.176C35.4616 232.025 36.0204 231.949 36.5696 231.949C36.92 231.949 37.3224 231.991 37.777 232.077C38.2363 232.157 38.679 232.325 39.1051 232.581C39.536 232.837 39.8935 233.223 40.1776 233.739C40.4616 234.255 40.6037 234.946 40.6037 235.812V243H38.9276V241.523H38.8423C38.7287 241.759 38.5393 242.013 38.2741 242.283C38.009 242.553 37.6563 242.782 37.2159 242.972C36.7756 243.161 36.2382 243.256 35.6037 243.256ZM35.8594 241.75C36.5223 241.75 37.081 241.62 37.5355 241.359C37.9948 241.099 38.3404 240.763 38.5724 240.351C38.8092 239.939 38.9276 239.506 38.9276 239.051V237.517C38.8565 237.602 38.7003 237.68 38.4588 237.751C38.2221 237.818 37.9474 237.877 37.6349 237.929C37.3272 237.976 37.0265 238.019 36.733 238.057C36.4441 238.09 36.2098 238.118 36.0298 238.142C35.5942 238.199 35.187 238.291 34.8082 238.419C34.4342 238.542 34.1312 238.729 33.8991 238.98C33.6719 239.226 33.5582 239.562 33.5582 239.989C33.5582 240.571 33.7737 241.011 34.2045 241.31C34.6402 241.603 35.1918 241.75 35.8594 241.75ZM52.1928 232.091L48.1587 243H46.4542L42.4201 232.091H44.2383L47.2496 240.784H47.3633L50.3746 232.091H52.1928ZM57.2834 243.256C56.5921 243.256 55.9647 243.125 55.4013 242.865C54.8378 242.6 54.3904 242.219 54.0589 241.722C53.7275 241.22 53.5618 240.614 53.5618 239.903C53.5618 239.278 53.6849 238.772 53.9311 238.384C54.1773 237.991 54.5064 237.683 54.9183 237.46C55.3303 237.238 55.7848 237.072 56.282 236.963C56.7839 236.849 57.2881 236.759 57.7947 236.693C58.4576 236.608 58.995 236.544 59.407 236.501C59.8236 236.454 60.1267 236.376 60.3161 236.267C60.5102 236.158 60.6072 235.969 60.6072 235.699V235.642C60.6072 234.941 60.4155 234.397 60.032 234.009C59.6532 233.62 59.0779 233.426 58.3061 233.426C57.5059 233.426 56.8786 233.601 56.424 233.952C55.9695 234.302 55.6499 234.676 55.4652 235.074L53.8743 234.506C54.1584 233.843 54.5372 233.327 55.0107 232.957C55.4889 232.583 56.0097 232.323 56.5732 232.176C57.1413 232.025 57.7 231.949 58.2493 231.949C58.5997 231.949 59.0021 231.991 59.4567 232.077C59.916 232.157 60.3587 232.325 60.7848 232.581C61.2157 232.837 61.5732 233.223 61.8572 233.739C62.1413 234.255 62.2834 234.946 62.2834 235.812V243H60.6072V241.523H60.522C60.4084 241.759 60.219 242.013 59.9538 242.283C59.6887 242.553 59.3359 242.782 58.8956 242.972C58.4553 243.161 57.9179 243.256 57.2834 243.256ZM57.5391 241.75C58.2019 241.75 58.7607 241.62 59.2152 241.359C59.6745 241.099 60.0201 240.763 60.2521 240.351C60.4889 239.939 60.6072 239.506 60.6072 239.051V237.517C60.5362 237.602 60.38 237.68 60.1385 237.751C59.9018 237.818 59.6271 237.877 59.3146 237.929C59.0069 237.976 58.7062 238.019 58.4126 238.057C58.1238 238.09 57.8894 238.118 57.7095 238.142C57.2739 238.199 56.8667 238.291 56.4879 238.419C56.1139 238.542 55.8108 238.729 55.5788 238.98C55.3516 239.226 55.2379 239.562 55.2379 239.989C55.2379 240.571 55.4534 241.011 55.8842 241.31C56.3198 241.603 56.8714 241.75 57.5391 241.75Z" fill="white"/>
<path d="M27.3295 257.455H29.0909V267.852C29.0909 268.78 28.9205 269.569 28.5795 270.217C28.2386 270.866 27.758 271.358 27.1378 271.695C26.5175 272.031 25.786 272.199 24.9432 272.199C24.1477 272.199 23.4399 272.054 22.8196 271.766C22.1993 271.472 21.7116 271.055 21.3565 270.516C21.0014 269.976 20.8239 269.334 20.8239 268.591H22.5568C22.5568 269.003 22.6586 269.363 22.8622 269.67C23.0705 269.973 23.3546 270.21 23.7145 270.381C24.0743 270.551 24.4839 270.636 24.9432 270.636C25.4498 270.636 25.8807 270.53 26.2358 270.317C26.5909 270.104 26.8608 269.791 27.0455 269.379C27.2348 268.963 27.3295 268.454 27.3295 267.852V257.455ZM35.6037 272.256C34.9124 272.256 34.285 272.125 33.7216 271.865C33.1581 271.6 32.7107 271.219 32.3793 270.722C32.0478 270.22 31.8821 269.614 31.8821 268.903C31.8821 268.278 32.0052 267.772 32.2514 267.384C32.4976 266.991 32.8267 266.683 33.2386 266.46C33.6506 266.238 34.1051 266.072 34.6023 265.963C35.1042 265.849 35.6084 265.759 36.1151 265.693C36.7779 265.608 37.3153 265.544 37.7273 265.501C38.1439 265.454 38.447 265.376 38.6364 265.267C38.8305 265.158 38.9276 264.969 38.9276 264.699V264.642C38.9276 263.941 38.7358 263.397 38.3523 263.009C37.9735 262.62 37.3982 262.426 36.6264 262.426C35.8262 262.426 35.1989 262.601 34.7443 262.952C34.2898 263.302 33.9702 263.676 33.7855 264.074L32.1946 263.506C32.4787 262.843 32.8575 262.327 33.331 261.957C33.8092 261.583 34.33 261.323 34.8935 261.176C35.4616 261.025 36.0204 260.949 36.5696 260.949C36.92 260.949 37.3224 260.991 37.777 261.077C38.2363 261.157 38.679 261.325 39.1051 261.581C39.536 261.837 39.8935 262.223 40.1776 262.739C40.4616 263.255 40.6037 263.946 40.6037 264.812V272H38.9276V270.523H38.8423C38.7287 270.759 38.5393 271.013 38.2741 271.283C38.009 271.553 37.6563 271.782 37.2159 271.972C36.7756 272.161 36.2382 272.256 35.6037 272.256ZM35.8594 270.75C36.5223 270.75 37.081 270.62 37.5355 270.359C37.9948 270.099 38.3404 269.763 38.5724 269.351C38.8092 268.939 38.9276 268.506 38.9276 268.051V266.517C38.8565 266.602 38.7003 266.68 38.4588 266.751C38.2221 266.818 37.9474 266.877 37.6349 266.929C37.3272 266.976 37.0265 267.019 36.733 267.057C36.4441 267.09 36.2098 267.118 36.0298 267.142C35.5942 267.199 35.187 267.291 34.8082 267.419C34.4342 267.542 34.1312 267.729 33.8991 267.98C33.6719 268.226 33.5582 268.562 33.5582 268.989C33.5582 269.571 33.7737 270.011 34.2045 270.31C34.6402 270.603 35.1918 270.75 35.8594 270.75ZM52.1928 261.091L48.1587 272H46.4542L42.4201 261.091H44.2383L47.2496 269.784H47.3633L50.3746 261.091H52.1928ZM57.2834 272.256C56.5921 272.256 55.9647 272.125 55.4013 271.865C54.8378 271.6 54.3904 271.219 54.0589 270.722C53.7275 270.22 53.5618 269.614 53.5618 268.903C53.5618 268.278 53.6849 267.772 53.9311 267.384C54.1773 266.991 54.5064 266.683 54.9183 266.46C55.3303 266.238 55.7848 266.072 56.282 265.963C56.7839 265.849 57.2881 265.759 57.7947 265.693C58.4576 265.608 58.995 265.544 59.407 265.501C59.8236 265.454 60.1267 265.376 60.3161 265.267C60.5102 265.158 60.6072 264.969 60.6072 264.699V264.642C60.6072 263.941 60.4155 263.397 60.032 263.009C59.6532 262.62 59.0779 262.426 58.3061 262.426C57.5059 262.426 56.8786 262.601 56.424 262.952C55.9695 263.302 55.6499 263.676 55.4652 264.074L53.8743 263.506C54.1584 262.843 54.5372 262.327 55.0107 261.957C55.4889 261.583 56.0097 261.323 56.5732 261.176C57.1413 261.025 57.7 260.949 58.2493 260.949C58.5997 260.949 59.0021 260.991 59.4567 261.077C59.916 261.157 60.3587 261.325 60.7848 261.581C61.2157 261.837 61.5732 262.223 61.8572 262.739C62.1413 263.255 62.2834 263.946 62.2834 264.812V272H60.6072V270.523H60.522C60.4084 270.759 60.219 271.013 59.9538 271.283C59.6887 271.553 59.3359 271.782 58.8956 271.972C58.4553 272.161 57.9179 272.256 57.2834 272.256ZM57.5391 270.75C58.2019 270.75 58.7607 270.62 59.2152 270.359C59.6745 270.099 60.0201 269.763 60.2521 269.351C60.4889 268.939 60.6072 268.506 60.6072 268.051V266.517C60.5362 266.602 60.38 266.68 60.1385 266.751C59.9018 266.818 59.6271 266.877 59.3146 266.929C59.0069 266.976 58.7062 267.019 58.4126 267.057C58.1238 267.09 57.8894 267.118 57.7095 267.142C57.2739 267.199 56.8667 267.291 56.4879 267.419C56.1139 267.542 55.8108 267.729 55.5788 267.98C55.3516 268.226 55.2379 268.562 55.2379 268.989C55.2379 269.571 55.4534 270.011 55.8842 270.31C56.3198 270.603 56.8714 270.75 57.5391 270.75ZM73.5245 261.091C73.4393 260.371 73.0936 259.812 72.4876 259.415C71.8815 259.017 71.1381 258.818 70.2575 258.818C69.6135 258.818 69.0501 258.922 68.5671 259.131C68.0889 259.339 67.7148 259.625 67.445 259.99C67.1798 260.355 67.0472 260.769 67.0472 261.233C67.0472 261.621 67.1396 261.955 67.3242 262.234C67.5136 262.509 67.7551 262.739 68.0487 262.923C68.3422 263.103 68.65 263.252 68.9719 263.371C69.2939 263.484 69.5898 263.577 69.8597 263.648L71.337 264.045C71.7158 264.145 72.1372 264.282 72.6012 264.457C73.07 264.633 73.5174 264.872 73.9435 265.175C74.3744 265.473 74.7295 265.857 75.0089 266.325C75.2882 266.794 75.4279 267.369 75.4279 268.051C75.4279 268.837 75.2219 269.547 74.81 270.182C74.4028 270.816 73.8062 271.321 73.0202 271.695C72.239 272.069 71.2897 272.256 70.1722 272.256C69.1306 272.256 68.2286 272.088 67.4663 271.751C66.7087 271.415 66.1121 270.946 65.6765 270.345C65.2456 269.744 65.0018 269.045 64.945 268.25H66.7631C66.8105 268.799 66.9951 269.254 67.3171 269.614C67.6438 269.969 68.0558 270.234 68.5529 270.409C69.0548 270.58 69.5946 270.665 70.1722 270.665C70.8446 270.665 71.4483 270.556 71.9833 270.338C72.5183 270.116 72.9421 269.808 73.2546 269.415C73.5671 269.017 73.7234 268.553 73.7234 268.023C73.7234 267.54 73.5884 267.147 73.3185 266.844C73.0487 266.541 72.6935 266.295 72.2532 266.105C71.8129 265.916 71.337 265.75 70.8256 265.608L69.0359 265.097C67.8995 264.77 66.9999 264.304 66.337 263.697C65.6741 263.091 65.3427 262.298 65.3427 261.318C65.3427 260.504 65.5629 259.794 66.0032 259.188C66.4483 258.577 67.0449 258.103 67.793 257.767C68.5458 257.426 69.3862 257.256 70.3143 257.256C71.2518 257.256 72.0851 257.424 72.8143 257.76C73.5434 258.091 74.1211 258.546 74.5472 259.124C74.9781 259.701 75.2054 260.357 75.229 261.091H73.5245ZM82.5284 272.227C81.5057 272.227 80.625 271.986 79.8864 271.503C79.1477 271.02 78.5795 270.355 78.1818 269.507C77.7841 268.66 77.5852 267.691 77.5852 266.602C77.5852 265.494 77.7888 264.517 78.196 263.669C78.608 262.817 79.1809 262.152 79.9148 261.673C80.6534 261.19 81.5152 260.949 82.5 260.949C83.267 260.949 83.9583 261.091 84.5739 261.375C85.1894 261.659 85.6937 262.057 86.0866 262.568C86.4796 263.08 86.7235 263.676 86.8182 264.358H85.142C85.0142 263.861 84.7301 263.42 84.2898 263.037C83.8542 262.649 83.267 262.455 82.5284 262.455C81.875 262.455 81.3021 262.625 80.8097 262.966C80.322 263.302 79.9408 263.778 79.6662 264.393C79.3963 265.004 79.2614 265.722 79.2614 266.545C79.2614 267.388 79.3939 268.122 79.6591 268.747C79.929 269.372 80.3078 269.857 80.7955 270.203C81.2879 270.549 81.8655 270.722 82.5284 270.722C82.964 270.722 83.3594 270.646 83.7145 270.494C84.0696 270.343 84.3703 270.125 84.6165 269.841C84.8627 269.557 85.0379 269.216 85.142 268.818H86.8182C86.7235 269.462 86.4891 270.042 86.1151 270.558C85.7457 271.07 85.2557 271.477 84.6449 271.78C84.0388 272.078 83.3333 272.227 82.5284 272.227ZM89.2685 272V261.091H90.8878V262.739H91.0014C91.2003 262.199 91.5601 261.761 92.081 261.425C92.6018 261.089 93.1889 260.92 93.8423 260.92C93.9654 260.92 94.1193 260.923 94.304 260.928C94.4886 260.932 94.6283 260.939 94.723 260.949V262.653C94.6662 262.639 94.536 262.618 94.3324 262.589C94.1335 262.556 93.9228 262.54 93.7003 262.54C93.17 262.54 92.6965 262.651 92.2798 262.874C91.8679 263.091 91.5412 263.394 91.2997 263.783C91.063 264.166 90.9446 264.604 90.9446 265.097V272H89.2685ZM96.7099 272V261.091H98.386V272H96.7099ZM97.5621 259.273C97.2354 259.273 96.9537 259.161 96.717 258.939C96.485 258.716 96.369 258.449 96.369 258.136C96.369 257.824 96.485 257.556 96.717 257.334C96.9537 257.111 97.2354 257 97.5621 257C97.8888 257 98.1682 257.111 98.4002 257.334C98.637 257.556 98.7553 257.824 98.7553 258.136C98.7553 258.449 98.637 258.716 98.4002 258.939C98.1682 259.161 97.8888 259.273 97.5621 259.273ZM101.456 276.091V261.091H103.075V262.824H103.274C103.397 262.634 103.568 262.393 103.786 262.099C104.008 261.801 104.325 261.536 104.737 261.304C105.154 261.067 105.717 260.949 106.428 260.949C107.346 260.949 108.156 261.179 108.857 261.638C109.557 262.097 110.104 262.748 110.497 263.591C110.89 264.434 111.087 265.428 111.087 266.574C111.087 267.729 110.89 268.731 110.497 269.578C110.104 270.421 109.56 271.074 108.864 271.538C108.168 271.998 107.365 272.227 106.456 272.227C105.755 272.227 105.194 272.111 104.773 271.879C104.351 271.643 104.027 271.375 103.8 271.077C103.572 270.774 103.397 270.523 103.274 270.324H103.132V276.091H101.456ZM103.104 266.545C103.104 267.369 103.224 268.096 103.466 268.726C103.707 269.351 104.06 269.841 104.524 270.196C104.988 270.546 105.556 270.722 106.229 270.722C106.929 270.722 107.514 270.537 107.983 270.168C108.456 269.794 108.812 269.292 109.048 268.662C109.29 268.027 109.411 267.322 109.411 266.545C109.411 265.778 109.292 265.087 109.055 264.472C108.823 263.851 108.471 263.361 107.997 263.001C107.528 262.637 106.939 262.455 106.229 262.455C105.547 262.455 104.974 262.627 104.51 262.973C104.046 263.314 103.696 263.792 103.459 264.408C103.222 265.018 103.104 265.731 103.104 266.545ZM118.388 261.091V262.511H112.734V261.091H118.388ZM114.382 258.477H116.058V268.875C116.058 269.348 116.127 269.704 116.264 269.94C116.406 270.172 116.586 270.329 116.804 270.409C117.027 270.485 117.261 270.523 117.507 270.523C117.692 270.523 117.843 270.513 117.962 270.494C118.08 270.471 118.175 270.452 118.246 270.438L118.587 271.943C118.473 271.986 118.314 272.028 118.111 272.071C117.907 272.118 117.649 272.142 117.337 272.142C116.863 272.142 116.399 272.04 115.945 271.837C115.495 271.633 115.121 271.323 114.822 270.906C114.529 270.49 114.382 269.964 114.382 269.33V258.477Z" fill="white"/>
<path d="M21.7614 301V286.455H26.6761C27.8172 286.455 28.75 286.661 29.4744 287.072C30.2036 287.48 30.7434 288.031 31.0938 288.727C31.4441 289.423 31.6193 290.2 31.6193 291.057C31.6193 291.914 31.4441 292.693 31.0938 293.393C30.7481 294.094 30.2131 294.653 29.4886 295.07C28.7642 295.482 27.8362 295.688 26.7045 295.688H23.1818V294.125H26.6477C27.429 294.125 28.0563 293.99 28.5298 293.72C29.0033 293.45 29.3466 293.086 29.5597 292.626C29.7775 292.162 29.8864 291.639 29.8864 291.057C29.8864 290.474 29.7775 289.954 29.5597 289.494C29.3466 289.035 29.0009 288.675 28.5227 288.415C28.0445 288.15 27.41 288.017 26.6193 288.017H23.5227V301H21.7614ZM34.4567 301V286.455H36.218V292.932H43.9737V286.455H45.7351V301H43.9737V294.494H36.218V301H34.4567ZM49.2614 301V286.455H54.1761C55.3172 286.455 56.25 286.661 56.9744 287.072C57.7036 287.48 58.2434 288.031 58.5938 288.727C58.9441 289.423 59.1193 290.2 59.1193 291.057C59.1193 291.914 58.9441 292.693 58.5938 293.393C58.2481 294.094 57.7131 294.653 56.9886 295.07C56.2642 295.482 55.3362 295.688 54.2045 295.688H50.6818V294.125H54.1477C54.929 294.125 55.5563 293.99 56.0298 293.72C56.5033 293.45 56.8466 293.086 57.0597 292.626C57.2775 292.162 57.3864 291.639 57.3864 291.057C57.3864 290.474 57.2775 289.954 57.0597 289.494C56.8466 289.035 56.5009 288.675 56.0227 288.415C55.5445 288.15 54.91 288.017 54.1193 288.017H51.0227V301H49.2614Z" fill="white"/>
<path d="M21.7614 330V315.455H26.6761C27.8172 315.455 28.75 315.661 29.4744 316.072C30.2036 316.48 30.7434 317.031 31.0938 317.727C31.4441 318.423 31.6193 319.2 31.6193 320.057C31.6193 320.914 31.4441 321.693 31.0938 322.393C30.7481 323.094 30.2131 323.653 29.4886 324.07C28.7642 324.482 27.8362 324.688 26.7045 324.688H23.1818V323.125H26.6477C27.429 323.125 28.0563 322.99 28.5298 322.72C29.0033 322.45 29.3466 322.086 29.5597 321.626C29.7775 321.162 29.8864 320.639 29.8864 320.057C29.8864 319.474 29.7775 318.954 29.5597 318.494C29.3466 318.035 29.0009 317.675 28.5227 317.415C28.0445 317.15 27.41 317.017 26.6193 317.017H23.5227V330H21.7614ZM38.544 330.227C37.5592 330.227 36.6951 329.993 35.9517 329.524C35.2131 329.055 34.6354 328.4 34.2188 327.557C33.8068 326.714 33.6009 325.729 33.6009 324.602C33.6009 323.466 33.8068 322.474 34.2188 321.626C34.6354 320.779 35.2131 320.121 35.9517 319.652C36.6951 319.183 37.5592 318.949 38.544 318.949C39.5289 318.949 40.3906 319.183 41.1293 319.652C41.8726 320.121 42.4503 320.779 42.8622 321.626C43.2789 322.474 43.4872 323.466 43.4872 324.602C43.4872 325.729 43.2789 326.714 42.8622 327.557C42.4503 328.4 41.8726 329.055 41.1293 329.524C40.3906 329.993 39.5289 330.227 38.544 330.227ZM38.544 328.722C39.2921 328.722 39.9077 328.53 40.3906 328.146C40.8736 327.763 41.2311 327.259 41.4631 326.634C41.6951 326.009 41.8111 325.331 41.8111 324.602C41.8111 323.873 41.6951 323.194 41.4631 322.564C41.2311 321.934 40.8736 321.425 40.3906 321.037C39.9077 320.649 39.2921 320.455 38.544 320.455C37.7959 320.455 37.1804 320.649 36.6974 321.037C36.2145 321.425 35.857 321.934 35.625 322.564C35.393 323.194 35.277 323.873 35.277 324.602C35.277 325.331 35.393 326.009 35.625 326.634C35.857 327.259 36.2145 327.763 36.6974 328.146C37.1804 328.53 37.7959 328.722 38.544 328.722ZM48.1463 330L44.8224 319.091H46.5838L48.9418 327.443H49.0554L51.3849 319.091H53.1747L55.4759 327.415H55.5895L57.9474 319.091H59.7088L56.3849 330H54.7372L52.3509 321.619H52.1804L49.794 330H48.1463ZM66.1275 330.227C65.0763 330.227 64.1696 329.995 63.4073 329.531C62.6497 329.062 62.065 328.409 61.6531 327.571C61.2459 326.728 61.0423 325.748 61.0423 324.631C61.0423 323.513 61.2459 322.528 61.6531 321.676C62.065 320.819 62.6379 320.152 63.3718 319.673C64.1104 319.19 64.9722 318.949 65.957 318.949C66.5252 318.949 67.0863 319.044 67.6403 319.233C68.1942 319.422 68.6985 319.73 69.1531 320.156C69.6076 320.578 69.9698 321.136 70.2397 321.832C70.5096 322.528 70.6445 323.385 70.6445 324.403V325.114H62.2354V323.665H68.94C68.94 323.049 68.8169 322.5 68.5707 322.017C68.3292 321.534 67.9835 321.153 67.5337 320.874C67.0887 320.594 66.5631 320.455 65.957 320.455C65.2894 320.455 64.7118 320.62 64.2241 320.952C63.7411 321.278 63.3694 321.705 63.109 322.23C62.8486 322.756 62.7184 323.319 62.7184 323.92V324.886C62.7184 325.71 62.8604 326.409 63.1445 326.982C63.4334 327.55 63.8335 327.983 64.3448 328.281C64.8562 328.575 65.4504 328.722 66.1275 328.722C66.5678 328.722 66.9656 328.66 67.3207 328.537C67.6805 328.409 67.9906 328.22 68.2511 327.969C68.5115 327.713 68.7127 327.396 68.8548 327.017L70.4741 327.472C70.3036 328.021 70.0172 328.504 69.6147 328.92C69.2122 329.332 68.7151 329.654 68.1232 329.886C67.5314 330.114 66.8661 330.227 66.1275 330.227ZM73.1942 330V319.091H74.8136V320.739H74.9272C75.1261 320.199 75.4859 319.761 76.0067 319.425C76.5276 319.089 77.1147 318.92 77.7681 318.92C77.8912 318.92 78.0451 318.923 78.2298 318.928C78.4144 318.932 78.5541 318.939 78.6488 318.949V320.653C78.592 320.639 78.4618 320.618 78.2582 320.589C78.0593 320.556 77.8486 320.54 77.6261 320.54C77.0958 320.54 76.6223 320.651 76.2056 320.874C75.7937 321.091 75.467 321.394 75.2255 321.783C74.9888 322.166 74.8704 322.604 74.8704 323.097V330H73.1942ZM88.8175 319.091C88.7322 318.371 88.3866 317.812 87.7805 317.415C87.1745 317.017 86.4311 316.818 85.5504 316.818C84.9065 316.818 84.343 316.922 83.8601 317.131C83.3819 317.339 83.0078 317.625 82.7379 317.99C82.4728 318.355 82.3402 318.769 82.3402 319.233C82.3402 319.621 82.4325 319.955 82.6172 320.234C82.8066 320.509 83.0481 320.739 83.3416 320.923C83.6352 321.103 83.9429 321.252 84.2649 321.371C84.5869 321.484 84.8828 321.577 85.1527 321.648L86.63 322.045C87.0088 322.145 87.4302 322.282 87.8942 322.457C88.3629 322.633 88.8104 322.872 89.2365 323.175C89.6674 323.473 90.0225 323.857 90.3018 324.325C90.5812 324.794 90.7209 325.369 90.7209 326.051C90.7209 326.837 90.5149 327.547 90.103 328.182C89.6958 328.816 89.0992 329.321 88.3132 329.695C87.532 330.069 86.5826 330.256 85.4652 330.256C84.4235 330.256 83.5215 330.088 82.7592 329.751C82.0017 329.415 81.4051 328.946 80.9695 328.345C80.5386 327.744 80.2947 327.045 80.2379 326.25H82.0561C82.1035 326.799 82.2881 327.254 82.6101 327.614C82.9368 327.969 83.3487 328.234 83.8459 328.409C84.3478 328.58 84.8875 328.665 85.4652 328.665C86.1375 328.665 86.7412 328.556 87.2763 328.338C87.8113 328.116 88.2351 327.808 88.5476 327.415C88.8601 327.017 89.0163 326.553 89.0163 326.023C89.0163 325.54 88.8814 325.147 88.6115 324.844C88.3416 324.541 87.9865 324.295 87.5462 324.105C87.1058 323.916 86.63 323.75 86.1186 323.608L84.3288 323.097C83.1925 322.77 82.2929 322.304 81.63 321.697C80.9671 321.091 80.6357 320.298 80.6357 319.318C80.6357 318.504 80.8558 317.794 81.2962 317.188C81.7412 316.577 82.3378 316.103 83.0859 315.767C83.8388 315.426 84.6792 315.256 85.6072 315.256C86.5447 315.256 87.3781 315.424 88.1072 315.76C88.8364 316.091 89.4141 316.546 89.8402 317.124C90.2711 317.701 90.4983 318.357 90.522 319.091H88.8175ZM95.0657 323.438V330H93.3896V315.455H95.0657V320.795H95.2077C95.4634 320.232 95.8469 319.785 96.3583 319.453C96.8744 319.117 97.561 318.949 98.418 318.949C99.1613 318.949 99.8124 319.098 100.371 319.396C100.93 319.69 101.363 320.142 101.671 320.753C101.983 321.359 102.14 322.131 102.14 323.068V330H100.463V323.182C100.463 322.315 100.239 321.645 99.7887 321.172C99.3436 320.694 98.7257 320.455 97.935 320.455C97.3858 320.455 96.8933 320.571 96.4577 320.803C96.0269 321.035 95.686 321.373 95.435 321.818C95.1888 322.263 95.0657 322.803 95.0657 323.438ZM109.78 330.227C108.729 330.227 107.822 329.995 107.06 329.531C106.302 329.062 105.717 328.409 105.305 327.571C104.898 326.728 104.695 325.748 104.695 324.631C104.695 323.513 104.898 322.528 105.305 321.676C105.717 320.819 106.29 320.152 107.024 319.673C107.763 319.19 108.625 318.949 109.609 318.949C110.178 318.949 110.739 319.044 111.293 319.233C111.847 319.422 112.351 319.73 112.805 320.156C113.26 320.578 113.622 321.136 113.892 321.832C114.162 322.528 114.297 323.385 114.297 324.403V325.114H105.888V323.665H112.592C112.592 323.049 112.469 322.5 112.223 322.017C111.982 321.534 111.636 321.153 111.186 320.874C110.741 320.594 110.215 320.455 109.609 320.455C108.942 320.455 108.364 320.62 107.876 320.952C107.393 321.278 107.022 321.705 106.761 322.23C106.501 322.756 106.371 323.319 106.371 323.92V324.886C106.371 325.71 106.513 326.409 106.797 326.982C107.086 327.55 107.486 327.983 107.997 328.281C108.509 328.575 109.103 328.722 109.78 328.722C110.22 328.722 110.618 328.66 110.973 328.537C111.333 328.409 111.643 328.22 111.903 327.969C112.164 327.713 112.365 327.396 112.507 327.017L114.126 327.472C113.956 328.021 113.67 328.504 113.267 328.92C112.865 329.332 112.367 329.654 111.776 329.886C111.184 330.114 110.518 330.227 109.78 330.227ZM118.523 315.455V330H116.847V315.455H118.523ZM123.269 315.455V330H121.593V315.455H123.269Z" fill="white"/>
<path d="M21.7614 359V344.455H26.6761C27.8172 344.455 28.75 344.661 29.4744 345.072C30.2036 345.48 30.7434 346.031 31.0938 346.727C31.4441 347.423 31.6193 348.2 31.6193 349.057C31.6193 349.914 31.4441 350.693 31.0938 351.393C30.7481 352.094 30.2131 352.653 29.4886 353.07C28.7642 353.482 27.8362 353.688 26.7045 353.688H23.1818V352.125H26.6477C27.429 352.125 28.0563 351.99 28.5298 351.72C29.0033 351.45 29.3466 351.086 29.5597 350.626C29.7775 350.162 29.8864 349.639 29.8864 349.057C29.8864 348.474 29.7775 347.954 29.5597 347.494C29.3466 347.035 29.0009 346.675 28.5227 346.415C28.0445 346.15 27.41 346.017 26.6193 346.017H23.5227V359H21.7614ZM35.3089 363.091C35.0249 363.091 34.7715 363.067 34.549 363.02C34.3265 362.977 34.1726 362.935 34.0874 362.892L34.5135 361.415C34.9207 361.519 35.2805 361.557 35.593 361.528C35.9055 361.5 36.1825 361.36 36.424 361.109C36.6702 360.863 36.8951 360.463 37.0987 359.909L37.4112 359.057L33.3771 348.091H35.1953L38.2067 356.784H38.3203L41.3317 348.091H43.1499L38.5192 360.591C38.3108 361.154 38.0528 361.621 37.745 361.99C37.4373 362.364 37.0798 362.641 36.6726 362.821C36.2701 363.001 35.8156 363.091 35.3089 363.091ZM50.1065 348.091V349.511H44.4531V348.091H50.1065ZM46.1009 345.477H47.777V355.875C47.777 356.348 47.8456 356.704 47.983 356.94C48.125 357.172 48.3049 357.329 48.5227 357.409C48.7453 357.485 48.9796 357.523 49.2259 357.523C49.4105 357.523 49.562 357.513 49.6804 357.494C49.7988 357.471 49.8935 357.452 49.9645 357.438L50.3054 358.943C50.1918 358.986 50.0331 359.028 49.8295 359.071C49.6259 359.118 49.3679 359.142 49.0554 359.142C48.5819 359.142 48.1179 359.04 47.6634 358.837C47.2135 358.633 46.8395 358.323 46.5412 357.906C46.2476 357.49 46.1009 356.964 46.1009 356.33V345.477ZM54.5384 352.438V359H52.8622V344.455H54.5384V349.795H54.6804C54.9361 349.232 55.3196 348.785 55.831 348.453C56.3471 348.117 57.0336 347.949 57.8906 347.949C58.634 347.949 59.285 348.098 59.8438 348.396C60.4025 348.69 60.8357 349.142 61.1435 349.753C61.456 350.359 61.6122 351.131 61.6122 352.068V359H59.9361V352.182C59.9361 351.315 59.7112 350.645 59.2614 350.172C58.8163 349.694 58.1984 349.455 57.4077 349.455C56.8584 349.455 56.366 349.571 55.9304 349.803C55.4995 350.035 55.1586 350.373 54.9077 350.818C54.6615 351.263 54.5384 351.803 54.5384 352.438ZM69.1104 359.227C68.1256 359.227 67.2615 358.993 66.5181 358.524C65.7795 358.055 65.2018 357.4 64.7852 356.557C64.3732 355.714 64.1673 354.729 64.1673 353.602C64.1673 352.466 64.3732 351.474 64.7852 350.626C65.2018 349.779 65.7795 349.121 66.5181 348.652C67.2615 348.183 68.1256 347.949 69.1104 347.949C70.0953 347.949 70.957 348.183 71.6957 348.652C72.439 349.121 73.0167 349.779 73.4286 350.626C73.8453 351.474 74.0536 352.466 74.0536 353.602C74.0536 354.729 73.8453 355.714 73.4286 356.557C73.0167 357.4 72.439 358.055 71.6957 358.524C70.957 358.993 70.0953 359.227 69.1104 359.227ZM69.1104 357.722C69.8585 357.722 70.4741 357.53 70.957 357.146C71.44 356.763 71.7975 356.259 72.0295 355.634C72.2615 355.009 72.3775 354.331 72.3775 353.602C72.3775 352.873 72.2615 352.194 72.0295 351.564C71.7975 350.934 71.44 350.425 70.957 350.037C70.4741 349.649 69.8585 349.455 69.1104 349.455C68.3623 349.455 67.7468 349.649 67.2638 350.037C66.7809 350.425 66.4234 350.934 66.1914 351.564C65.9594 352.194 65.8434 352.873 65.8434 353.602C65.8434 354.331 65.9594 355.009 66.1914 355.634C66.4234 356.259 66.7809 356.763 67.2638 357.146C67.7468 357.53 68.3623 357.722 69.1104 357.722ZM78.2884 352.438V359H76.6122V348.091H78.2315V349.795H78.3736C78.6293 349.241 79.0175 348.796 79.5384 348.46C80.0592 348.119 80.7315 347.949 81.5554 347.949C82.294 347.949 82.9403 348.1 83.4943 348.403C84.0483 348.702 84.4792 349.156 84.7869 349.767C85.0947 350.373 85.2486 351.14 85.2486 352.068V359H83.5724V352.182C83.5724 351.325 83.3499 350.657 82.9048 350.179C82.4598 349.696 81.849 349.455 81.0724 349.455C80.5374 349.455 80.0592 349.571 79.6378 349.803C79.2211 350.035 78.892 350.373 78.6506 350.818C78.4091 351.263 78.2884 351.803 78.2884 352.438Z" fill="white"/>
<path d="M21.7614 388V373.455H26.6761C27.8125 373.455 28.7453 373.649 29.4744 374.037C30.2036 374.42 30.7434 374.948 31.0938 375.621C31.4441 376.293 31.6193 377.058 31.6193 377.915C31.6193 378.772 31.4441 379.532 31.0938 380.195C30.7434 380.857 30.206 381.378 29.4815 381.757C28.7571 382.131 27.8314 382.318 26.7045 382.318H22.7273V380.727H26.6477C27.4242 380.727 28.0492 380.614 28.5227 380.386C29.0009 380.159 29.3466 379.837 29.5597 379.42C29.7775 378.999 29.8864 378.497 29.8864 377.915C29.8864 377.332 29.7775 376.823 29.5597 376.388C29.3419 375.952 28.9938 375.616 28.5156 375.379C28.0374 375.138 27.4053 375.017 26.6193 375.017H23.5227V388H21.7614ZM28.608 381.466L32.1875 388H30.142L26.6193 381.466H28.608ZM41.2021 383.54V377.091H42.8782V388H41.2021V386.153H41.0884C40.8327 386.707 40.435 387.179 39.8952 387.567C39.3555 387.95 38.6737 388.142 37.8498 388.142C37.168 388.142 36.5619 387.993 36.0316 387.695C35.5013 387.392 35.0846 386.937 34.7816 386.331C34.4786 385.72 34.3271 384.951 34.3271 384.023V377.091H36.0032V383.909C36.0032 384.705 36.2257 385.339 36.6708 385.812C37.1206 386.286 37.6935 386.523 38.3896 386.523C38.8062 386.523 39.23 386.416 39.6609 386.203C40.0965 385.99 40.4611 385.663 40.7546 385.223C41.0529 384.783 41.2021 384.222 41.2021 383.54ZM46.1754 388V373.455H47.8516V378.824H47.9936C48.1167 378.634 48.2872 378.393 48.505 378.099C48.7275 377.801 49.0447 377.536 49.4567 377.304C49.8733 377.067 50.4368 376.949 51.147 376.949C52.0656 376.949 52.8752 377.179 53.576 377.638C54.2768 378.097 54.8236 378.748 55.2166 379.591C55.6096 380.434 55.8061 381.428 55.8061 382.574C55.8061 383.729 55.6096 384.731 55.2166 385.578C54.8236 386.421 54.2791 387.074 53.5831 387.538C52.8871 387.998 52.0845 388.227 51.1754 388.227C50.4747 388.227 49.9136 388.111 49.4922 387.879C49.0708 387.643 48.7464 387.375 48.5192 387.077C48.2919 386.774 48.1167 386.523 47.9936 386.324H47.7947V388H46.1754ZM47.8232 382.545C47.8232 383.369 47.9439 384.096 48.1854 384.726C48.4268 385.351 48.7796 385.841 49.2436 386.196C49.7076 386.546 50.2758 386.722 50.9482 386.722C51.6489 386.722 52.2337 386.537 52.7024 386.168C53.1759 385.794 53.531 385.292 53.7678 384.662C54.0092 384.027 54.13 383.322 54.13 382.545C54.13 381.778 54.0116 381.087 53.7749 380.472C53.5429 379.851 53.1901 379.361 52.7166 379.001C52.2479 378.637 51.6584 378.455 50.9482 378.455C50.2663 378.455 49.6934 378.627 49.2294 378.973C48.7654 379.314 48.415 379.792 48.1783 380.408C47.9415 381.018 47.8232 381.731 47.8232 382.545ZM59.0589 392.091C58.7749 392.091 58.5215 392.067 58.299 392.02C58.0765 391.977 57.9226 391.935 57.8374 391.892L58.2635 390.415C58.6707 390.519 59.0305 390.557 59.343 390.528C59.6555 390.5 59.9325 390.36 60.174 390.109C60.4202 389.863 60.6451 389.463 60.8487 388.909L61.1612 388.057L57.1271 377.091H58.9453L61.9567 385.784H62.0703L65.0817 377.091H66.8999L62.2692 389.591C62.0608 390.154 61.8028 390.621 61.495 390.99C61.1873 391.364 60.8298 391.641 60.4226 391.821C60.0201 392.001 59.5656 392.091 59.0589 392.091Z" fill="white"/>
<path d="M21.7614 417V402.455H26.6761C27.8125 402.455 28.7453 402.649 29.4744 403.037C30.2036 403.42 30.7434 403.948 31.0938 404.621C31.4441 405.293 31.6193 406.058 31.6193 406.915C31.6193 407.772 31.4441 408.532 31.0938 409.195C30.7434 409.857 30.206 410.378 29.4815 410.757C28.7571 411.131 27.8314 411.318 26.7045 411.318H22.7273V409.727H26.6477C27.4242 409.727 28.0492 409.614 28.5227 409.386C29.0009 409.159 29.3466 408.837 29.5597 408.42C29.7775 407.999 29.8864 407.497 29.8864 406.915C29.8864 406.332 29.7775 405.823 29.5597 405.388C29.3419 404.952 28.9938 404.616 28.5156 404.379C28.0374 404.138 27.4053 404.017 26.6193 404.017H23.5227V417H21.7614ZM28.608 410.466L32.1875 417H30.142L26.6193 410.466H28.608ZM41.2021 412.54V406.091H42.8782V417H41.2021V415.153H41.0884C40.8327 415.707 40.435 416.179 39.8952 416.567C39.3555 416.95 38.6737 417.142 37.8498 417.142C37.168 417.142 36.5619 416.993 36.0316 416.695C35.5013 416.392 35.0846 415.937 34.7816 415.331C34.4786 414.72 34.3271 413.951 34.3271 413.023V406.091H36.0032V412.909C36.0032 413.705 36.2257 414.339 36.6708 414.812C37.1206 415.286 37.6935 415.523 38.3896 415.523C38.8062 415.523 39.23 415.416 39.6609 415.203C40.0965 414.99 40.4611 414.663 40.7546 414.223C41.0529 413.783 41.2021 413.222 41.2021 412.54ZM53.6754 408.534L52.1697 408.96C52.075 408.709 51.9354 408.465 51.7507 408.229C51.5708 407.987 51.3246 407.788 51.0121 407.632C50.6996 407.476 50.2995 407.398 49.8118 407.398C49.1442 407.398 48.5878 407.552 48.1428 407.859C47.7024 408.162 47.4822 408.548 47.4822 409.017C47.4822 409.434 47.6338 409.763 47.9368 410.004C48.2398 410.246 48.7133 410.447 49.3572 410.608L50.9766 411.006C51.9519 411.242 52.6787 411.605 53.157 412.092C53.6352 412.575 53.8743 413.198 53.8743 413.96C53.8743 414.585 53.6944 415.144 53.3345 415.636C52.9794 416.129 52.4822 416.517 51.843 416.801C51.2038 417.085 50.4605 417.227 49.6129 417.227C48.5002 417.227 47.5793 416.986 46.8501 416.503C46.121 416.02 45.6593 415.314 45.4652 414.386L47.0561 413.989C47.2076 414.576 47.4941 415.016 47.9155 415.31C48.3416 415.603 48.898 415.75 49.5845 415.75C50.3658 415.75 50.986 415.584 51.4453 415.253C51.9093 414.917 52.1413 414.514 52.1413 414.045C52.1413 413.667 52.0088 413.349 51.7436 413.094C51.4785 412.833 51.0713 412.639 50.522 412.511L48.7038 412.085C47.7048 411.848 46.9709 411.482 46.5021 410.984C46.0381 410.482 45.8061 409.855 45.8061 409.102C45.8061 408.487 45.9789 407.942 46.3246 407.469C46.675 406.995 47.1508 406.624 47.7521 406.354C48.3582 406.084 49.0447 405.949 49.8118 405.949C50.8913 405.949 51.7389 406.186 52.3544 406.659C52.9747 407.133 53.415 407.758 53.6754 408.534ZM61.1417 406.091V407.511H55.4883V406.091H61.1417ZM57.136 403.477H58.8121V413.875C58.8121 414.348 58.8808 414.704 59.0181 414.94C59.1602 415.172 59.3401 415.329 59.5579 415.409C59.7804 415.485 60.0148 415.523 60.261 415.523C60.4457 415.523 60.5972 415.513 60.7156 415.494C60.8339 415.471 60.9286 415.452 60.9996 415.438L61.3406 416.943C61.2269 416.986 61.0683 417.028 60.8647 417.071C60.6611 417.118 60.4031 417.142 60.0906 417.142C59.6171 417.142 59.1531 417.04 58.6985 416.837C58.2487 416.633 57.8746 416.323 57.5763 415.906C57.2828 415.49 57.136 414.964 57.136 414.33V403.477Z" fill="white"/>
<path d="M29.7159 435.091C29.6307 434.371 29.285 433.812 28.679 433.415C28.0729 433.017 27.3295 432.818 26.4489 432.818C25.8049 432.818 25.2415 432.922 24.7585 433.131C24.2803 433.339 23.9063 433.625 23.6364 433.99C23.3712 434.355 23.2386 434.769 23.2386 435.233C23.2386 435.621 23.331 435.955 23.5156 436.234C23.705 436.509 23.9465 436.739 24.2401 436.923C24.5336 437.103 24.8414 437.252 25.1634 437.371C25.4853 437.484 25.7812 437.577 26.0511 437.648L27.5284 438.045C27.9072 438.145 28.3286 438.282 28.7926 438.457C29.2614 438.633 29.7088 438.872 30.1349 439.175C30.5658 439.473 30.9209 439.857 31.2003 440.325C31.4796 440.794 31.6193 441.369 31.6193 442.051C31.6193 442.837 31.4134 443.547 31.0014 444.182C30.5942 444.816 29.9976 445.321 29.2116 445.695C28.4304 446.069 27.4811 446.256 26.3636 446.256C25.322 446.256 24.42 446.088 23.6577 445.751C22.9001 445.415 22.3035 444.946 21.8679 444.345C21.437 443.744 21.1932 443.045 21.1364 442.25H22.9545C23.0019 442.799 23.1866 443.254 23.5085 443.614C23.8352 443.969 24.2472 444.234 24.7443 444.409C25.2462 444.58 25.786 444.665 26.3636 444.665C27.036 444.665 27.6397 444.556 28.1747 444.338C28.7098 444.116 29.1335 443.808 29.446 443.415C29.7585 443.017 29.9148 442.553 29.9148 442.023C29.9148 441.54 29.7798 441.147 29.5099 440.844C29.2401 440.541 28.8849 440.295 28.4446 440.105C28.0043 439.916 27.5284 439.75 27.017 439.608L25.2273 439.097C24.0909 438.77 23.1913 438.304 22.5284 437.697C21.8655 437.091 21.5341 436.298 21.5341 435.318C21.5341 434.504 21.7543 433.794 22.1946 433.188C22.6397 432.577 23.2363 432.103 23.9844 431.767C24.7372 431.426 25.5777 431.256 26.5057 431.256C27.4432 431.256 28.2765 431.424 29.0057 431.76C29.7348 432.091 30.3125 432.546 30.7386 433.124C31.1695 433.701 31.3968 434.357 31.4205 435.091H29.7159ZM38.8619 446.227C37.8107 446.227 36.904 445.995 36.1417 445.531C35.3841 445.062 34.7994 444.409 34.3874 443.571C33.9802 442.728 33.7766 441.748 33.7766 440.631C33.7766 439.513 33.9802 438.528 34.3874 437.676C34.7994 436.819 35.3723 436.152 36.1062 435.673C36.8448 435.19 37.7066 434.949 38.6914 434.949C39.2596 434.949 39.8207 435.044 40.3746 435.233C40.9286 435.422 41.4329 435.73 41.8874 436.156C42.342 436.578 42.7042 437.136 42.9741 437.832C43.244 438.528 43.3789 439.385 43.3789 440.403V441.114H34.9698V439.665H41.6744C41.6744 439.049 41.5513 438.5 41.305 438.017C41.0636 437.534 40.7179 437.153 40.2681 436.874C39.823 436.594 39.2975 436.455 38.6914 436.455C38.0238 436.455 37.4461 436.62 36.9585 436.952C36.4755 437.278 36.1038 437.705 35.8434 438.23C35.583 438.756 35.4528 439.319 35.4528 439.92V440.886C35.4528 441.71 35.5948 442.409 35.8789 442.982C36.1677 443.55 36.5678 443.983 37.0792 444.281C37.5906 444.575 38.1848 444.722 38.8619 444.722C39.3022 444.722 39.6999 444.66 40.055 444.537C40.4149 444.409 40.725 444.22 40.9854 443.969C41.2459 443.713 41.4471 443.396 41.5891 443.017L43.2085 443.472C43.038 444.021 42.7515 444.504 42.3491 444.92C41.9466 445.332 41.4495 445.654 40.8576 445.886C40.2657 446.114 39.6005 446.227 38.8619 446.227ZM50.0479 446.227C49.1388 446.227 48.3363 445.998 47.6403 445.538C46.9442 445.074 46.3997 444.421 46.0067 443.578C45.6138 442.731 45.4173 441.729 45.4173 440.574C45.4173 439.428 45.6138 438.434 46.0067 437.591C46.3997 436.748 46.9466 436.097 47.6474 435.638C48.3481 435.179 49.1578 434.949 50.0763 434.949C50.7866 434.949 51.3477 435.067 51.7596 435.304C52.1763 435.536 52.4935 435.801 52.7113 436.099C52.9338 436.393 53.1067 436.634 53.2298 436.824H53.3718V431.455H55.0479V446H53.4286V444.324H53.2298C53.1067 444.523 52.9315 444.774 52.7042 445.077C52.4769 445.375 52.1526 445.643 51.7312 445.879C51.3098 446.111 50.7487 446.227 50.0479 446.227ZM50.2752 444.722C50.9476 444.722 51.5157 444.546 51.9798 444.196C52.4438 443.841 52.7965 443.351 53.038 442.726C53.2795 442.096 53.4002 441.369 53.4002 440.545C53.4002 439.731 53.2818 439.018 53.0451 438.408C52.8084 437.792 52.458 437.314 51.994 436.973C51.5299 436.627 50.957 436.455 50.2752 436.455C49.565 436.455 48.9731 436.637 48.4996 437.001C48.0309 437.361 47.6781 437.851 47.4414 438.472C47.2094 439.087 47.0934 439.778 47.0934 440.545C47.0934 441.322 47.2118 442.027 47.4485 442.662C47.69 443.292 48.0451 443.794 48.5138 444.168C48.9873 444.537 49.5745 444.722 50.2752 444.722Z" fill="white"/>
<path d="M29.7159 464.091C29.6307 463.371 29.285 462.812 28.679 462.415C28.0729 462.017 27.3295 461.818 26.4489 461.818C25.8049 461.818 25.2415 461.922 24.7585 462.131C24.2803 462.339 23.9063 462.625 23.6364 462.99C23.3712 463.355 23.2386 463.769 23.2386 464.233C23.2386 464.621 23.331 464.955 23.5156 465.234C23.705 465.509 23.9465 465.739 24.2401 465.923C24.5336 466.103 24.8414 466.252 25.1634 466.371C25.4853 466.484 25.7812 466.577 26.0511 466.648L27.5284 467.045C27.9072 467.145 28.3286 467.282 28.7926 467.457C29.2614 467.633 29.7088 467.872 30.1349 468.175C30.5658 468.473 30.9209 468.857 31.2003 469.325C31.4796 469.794 31.6193 470.369 31.6193 471.051C31.6193 471.837 31.4134 472.547 31.0014 473.182C30.5942 473.816 29.9976 474.321 29.2116 474.695C28.4304 475.069 27.4811 475.256 26.3636 475.256C25.322 475.256 24.42 475.088 23.6577 474.751C22.9001 474.415 22.3035 473.946 21.8679 473.345C21.437 472.744 21.1932 472.045 21.1364 471.25H22.9545C23.0019 471.799 23.1866 472.254 23.5085 472.614C23.8352 472.969 24.2472 473.234 24.7443 473.409C25.2462 473.58 25.786 473.665 26.3636 473.665C27.036 473.665 27.6397 473.556 28.1747 473.338C28.7098 473.116 29.1335 472.808 29.446 472.415C29.7585 472.017 29.9148 471.553 29.9148 471.023C29.9148 470.54 29.7798 470.147 29.5099 469.844C29.2401 469.541 28.8849 469.295 28.4446 469.105C28.0043 468.916 27.5284 468.75 27.017 468.608L25.2273 468.097C24.0909 467.77 23.1913 467.304 22.5284 466.697C21.8655 466.091 21.5341 465.298 21.5341 464.318C21.5341 463.504 21.7543 462.794 22.1946 462.188C22.6397 461.577 23.2363 461.103 23.9844 460.767C24.7372 460.426 25.5777 460.256 26.5057 460.256C27.4432 460.256 28.2765 460.424 29.0057 460.76C29.7348 461.091 30.3125 461.546 30.7386 462.124C31.1695 462.701 31.3968 463.357 31.4205 464.091H29.7159ZM39.7994 470.455H41.7312L43.3505 472.585L43.7766 473.153L46.1914 476.364H44.2596L42.6687 474.233L42.271 473.693L39.7994 470.455ZM46.788 467.727C46.788 469.261 46.511 470.587 45.957 471.705C45.4031 472.822 44.6431 473.684 43.6772 474.29C42.7113 474.896 41.6081 475.199 40.3675 475.199C39.127 475.199 38.0238 474.896 37.0579 474.29C36.092 473.684 35.332 472.822 34.7781 471.705C34.2241 470.587 33.9471 469.261 33.9471 467.727C33.9471 466.193 34.2241 464.867 34.7781 463.75C35.332 462.633 36.092 461.771 37.0579 461.165C38.0238 460.559 39.127 460.256 40.3675 460.256C41.6081 460.256 42.7113 460.559 43.6772 461.165C44.6431 461.771 45.4031 462.633 45.957 463.75C46.511 464.867 46.788 466.193 46.788 467.727ZM45.0835 467.727C45.0835 466.468 44.8728 465.405 44.4513 464.538C44.0347 463.672 43.4689 463.016 42.7539 462.571C42.0437 462.126 41.2482 461.903 40.3675 461.903C39.4869 461.903 38.689 462.126 37.9741 462.571C37.2638 463.016 36.698 463.672 36.2766 464.538C35.86 465.405 35.6516 466.468 35.6516 467.727C35.6516 468.987 35.86 470.05 36.2766 470.916C36.698 471.783 37.2638 472.438 37.9741 472.884C38.689 473.329 39.4869 473.551 40.3675 473.551C41.2482 473.551 42.0437 473.329 42.7539 472.884C43.4689 472.438 44.0347 471.783 44.4513 470.916C44.8728 470.05 45.0835 468.987 45.0835 467.727ZM49.7496 475V460.455H51.511V473.438H58.2724V475H49.7496Z" fill="white"/>
<g filter="url(#filter0_d_1_2)">
<path d="M170 84C170 78.4771 174.477 74 180 74H460C465.523 74 470 78.4771 470 84V88C470 93.5228 465.523 98 460 98H180C174.477 98 170 93.5228 170 88V84Z" fill="#0099FF"/>
</g>
<g filter="url(#filter1_d_1_2)">
<path d="M170 113C170 107.477 174.477 103 180 103H360C365.523 103 370 107.477 370 113V117C370 122.523 365.523 127 360 127H180C174.477 127 170 122.523 170 117V113Z" fill="#0077FF"/>
</g>
<g filter="url(#filter2_d_1_2)">
<path d="M170 142C170 136.477 174.477 132 180 132H460C465.523 132 470 136.477 470 142V146C470 151.523 465.523 156 460 156H180C174.477 156 170 151.523 170 146V142Z" fill="#0099FF"/>
</g>
<g filter="url(#filter3_d_1_2)">
<path d="M170 171C170 165.477 174.477 161 180 161H360C365.523 161 370 165.477 370 171V175C370 180.523 365.523 185 360 185H180C174.477 185 170 180.523 170 175V171Z" fill="#0077FF"/>
</g>
<g filter="url(#filter4_d_1_2)">
<path d="M170 200C170 194.477 174.477 190 180 190H260C265.523 190 270 194.477 270 200V204C270 209.523 265.523 214 260 214H180C174.477 214 170 209.523 170 204V200Z" fill="#0055FF"/>
</g>
<g filter="url(#filter5_d_1_2)">
<path d="M170 229C170 223.477 174.477 219 180 219H360C365.523 219 370 223.477 370 229V233C370 238.523 365.523 243 360 243H180C174.477 243 170 238.523 170 233V229Z" fill="#0077FF"/>
</g>
<g filter="url(#filter6_d_1_2)">
<path d="M170 258C170 252.477 174.477 248 180 248H460C465.523 248 470 252.477 470 258V262C470 267.523 465.523 272 460 272H180C174.477 272 170 267.523 170 262V258Z" fill="#0099FF"/>
</g>
<g filter="url(#filter7_d_1_2)">
<path d="M170 287C170 281.477 174.477 277 180 277H260C265.523 277 270 281.477 270 287V291C270 296.523 265.523 301 260 301H180C174.477 301 170 296.523 170 291V287Z" fill="#0055FF"/>
</g>
<g filter="url(#filter8_d_1_2)">
<path d="M170 316C170 310.477 174.477 306 180 306H260C265.523 306 270 310.477 270 316V320C270 325.523 265.523 330 260 330H180C174.477 330 170 325.523 170 320V316Z" fill="#0055FF"/>
</g>
<g filter="url(#filter9_d_1_2)">
<path d="M170 345C170 339.477 174.477 335 180 335H460C465.523 335 470 339.477 470 345V349C470 354.523 465.523 359 460 359H180C174.477 359 170 354.523 170 349V345Z" fill="#0099FF"/>
</g>
<g filter="url(#filter10_d_1_2)">
<path d="M170 374C170 368.477 174.477 364 180 364H260C265.523 364 270 368.477 270 374V378C270 383.523 265.523 388 260 388H180C174.477 388 170 383.523 170 378V374Z" fill="#0055FF"/>
</g>
<g filter="url(#filter11_d_1_2)">
<path d="M170 403C170 397.477 174.477 393 180 393H360C365.523 393 370 397.477 370 403V407C370 412.523 365.523 417 360 417H180C174.477 417 170 412.523 170 407V403Z" fill="#0077FF"/>
</g>
<g filter="url(#filter12_d_1_2)">
<path d="M170 432C170 426.477 174.477 422 180 422H260C265.523 422 270 426.477 270 432V436C270 441.523 265.523 446 260 446H180C174.477 446 170 441.523 170 436V432Z" fill="#0055FF"/>
</g>
<g filter="url(#filter13_d_1_2)">
<path d="M170 461C170 455.477 174.477 451 180 451H460C465.523 451 470 455.477 470 461V465C470 470.523 465.523 475 460 475H180C174.477 475 170 470.523 170 465V461Z" fill="#0099FF"/>
</g>
<path d="M255.535 59H254.14L255.94 51.5C256.4 51.36 256.895 51.25 257.425 51.17C257.965 51.08 258.445 51.035 258.865 51.035C259.315 51.035 259.7 51.1 260.02 51.23C260.35 51.35 260.615 51.52 260.815 51.74C261.015 51.95 261.16 52.21 261.25 52.52C261.35 52.82 261.4 53.15 261.4 53.51C261.4 53.74 261.38 53.985 261.34 54.245C261.3 54.495 261.25 54.75 261.19 55.01L260.23 59H258.835L259.72 55.31C259.79 55.03 259.855 54.745 259.915 54.455C259.985 54.165 260.02 53.89 260.02 53.63C260.02 53.23 259.91 52.9 259.69 52.64C259.47 52.37 259.06 52.235 258.46 52.235C258.21 52.235 257.965 52.25 257.725 52.28C257.485 52.31 257.285 52.35 257.125 52.4L255.535 59ZM265.387 59.195C264.567 59.195 263.922 58.955 263.452 58.475C262.992 57.985 262.762 57.315 262.762 56.465C262.762 55.885 262.842 55.275 263.002 54.635C263.172 53.995 263.437 53.405 263.797 52.865C264.157 52.325 264.622 51.88 265.192 51.53C265.762 51.18 266.452 51.005 267.262 51.005C268.082 51.005 268.722 51.25 269.182 51.74C269.652 52.22 269.887 52.885 269.887 53.735C269.887 54.315 269.802 54.925 269.632 55.565C269.472 56.205 269.212 56.795 268.852 57.335C268.492 57.875 268.027 58.32 267.457 58.67C266.887 59.02 266.197 59.195 265.387 59.195ZM265.627 58.01C266.077 58.01 266.477 57.88 266.827 57.62C267.187 57.36 267.487 57.03 267.727 56.63C267.977 56.22 268.167 55.77 268.297 55.28C268.427 54.79 268.492 54.315 268.492 53.855C268.492 53.345 268.382 52.94 268.162 52.64C267.942 52.34 267.562 52.19 267.022 52.19C266.572 52.19 266.167 52.32 265.807 52.58C265.457 52.84 265.157 53.175 264.907 53.585C264.667 53.985 264.482 54.43 264.352 54.92C264.222 55.41 264.157 55.885 264.157 56.345C264.157 56.855 264.267 57.26 264.487 57.56C264.707 57.86 265.087 58.01 265.627 58.01ZM273.707 59.195C272.887 59.195 272.242 58.955 271.772 58.475C271.312 57.985 271.082 57.315 271.082 56.465C271.082 55.885 271.162 55.275 271.322 54.635C271.492 53.995 271.757 53.405 272.117 52.865C272.477 52.325 272.942 51.88 273.512 51.53C274.082 51.18 274.772 51.005 275.582 51.005C276.402 51.005 277.042 51.25 277.502 51.74C277.972 52.22 278.207 52.885 278.207 53.735C278.207 54.315 278.122 54.925 277.952 55.565C277.792 56.205 277.532 56.795 277.172 57.335C276.812 57.875 276.347 58.32 275.777 58.67C275.207 59.02 274.517 59.195 273.707 59.195ZM273.947 58.01C274.397 58.01 274.797 57.88 275.147 57.62C275.507 57.36 275.807 57.03 276.047 56.63C276.297 56.22 276.487 55.77 276.617 55.28C276.747 54.79 276.812 54.315 276.812 53.855C276.812 53.345 276.702 52.94 276.482 52.64C276.262 52.34 275.882 52.19 275.342 52.19C274.892 52.19 274.487 52.32 274.127 52.58C273.777 52.84 273.477 53.175 273.227 53.585C272.987 53.985 272.802 54.43 272.672 54.92C272.542 55.41 272.477 55.885 272.477 56.345C272.477 56.855 272.587 57.26 272.807 57.56C273.027 57.86 273.407 58.01 273.947 58.01ZM282.237 51.515C282.467 51.375 282.732 51.255 283.032 51.155C283.332 51.055 283.652 51.005 283.992 51.005C284.422 51.005 284.797 51.075 285.117 51.215C285.447 51.355 285.717 51.55 285.927 51.8C286.137 52.04 286.292 52.33 286.392 52.67C286.502 53.01 286.557 53.375 286.557 53.765C286.557 54.455 286.447 55.125 286.227 55.775C286.007 56.415 285.672 56.99 285.222 57.5C284.772 58 284.207 58.405 283.527 58.715C282.857 59.015 282.067 59.165 281.157 59.165C281.007 59.165 280.842 59.155 280.662 59.135C280.482 59.125 280.297 59.1 280.107 59.06C279.927 59.02 279.747 58.97 279.567 58.91C279.397 58.85 279.247 58.78 279.117 58.7L281.772 47.6L283.227 47.36L282.237 51.515ZM283.647 52.19C283.347 52.19 283.047 52.245 282.747 52.355C282.457 52.455 282.182 52.6 281.922 52.79L280.707 57.875C280.807 57.895 280.922 57.915 281.052 57.935C281.182 57.955 281.312 57.965 281.442 57.965C282.012 57.965 282.527 57.855 282.987 57.635C283.447 57.405 283.837 57.105 284.157 56.735C284.477 56.355 284.722 55.925 284.892 55.445C285.072 54.955 285.162 54.445 285.162 53.915C285.162 53.695 285.137 53.48 285.087 53.27C285.047 53.06 284.967 52.875 284.847 52.715C284.737 52.555 284.582 52.43 284.382 52.34C284.192 52.24 283.947 52.19 283.647 52.19Z" fill="#F44336"/>
<path d="M349.48 59.09C349.43 58.98 349.38 58.86 349.33 58.73C349.28 58.59 349.24 58.445 349.21 58.295C348.99 58.495 348.695 58.695 348.325 58.895C347.955 59.095 347.5 59.195 346.96 59.195C346.52 59.195 346.14 59.125 345.82 58.985C345.51 58.845 345.255 58.65 345.055 58.4C344.855 58.15 344.705 57.855 344.605 57.515C344.515 57.175 344.47 56.8 344.47 56.39C344.47 55.72 344.58 55.065 344.8 54.425C345.03 53.785 345.37 53.215 345.82 52.715C346.27 52.215 346.835 51.81 347.515 51.5C348.195 51.19 348.99 51.035 349.9 51.035C350.17 51.035 350.485 51.065 350.845 51.125C351.205 51.185 351.515 51.285 351.775 51.425L350.62 56.135C350.57 56.365 350.525 56.585 350.485 56.795C350.455 57.005 350.44 57.225 350.44 57.455C350.44 57.685 350.46 57.92 350.5 58.16C350.54 58.39 350.61 58.64 350.71 58.91L349.48 59.09ZM347.245 58.01C347.665 58.01 348.025 57.92 348.325 57.74C348.625 57.56 348.885 57.35 349.105 57.11C349.115 56.94 349.13 56.765 349.15 56.585C349.18 56.395 349.215 56.205 349.255 56.015L350.155 52.295C350.105 52.275 350.02 52.26 349.9 52.25C349.79 52.24 349.69 52.235 349.6 52.235C349.03 52.235 348.515 52.345 348.055 52.565C347.595 52.785 347.2 53.08 346.87 53.45C346.55 53.81 346.3 54.235 346.12 54.725C345.95 55.205 345.865 55.71 345.865 56.24C345.865 56.45 345.885 56.665 345.925 56.885C345.965 57.095 346.035 57.285 346.135 57.455C346.245 57.615 346.385 57.75 346.555 57.86C346.735 57.96 346.965 58.01 347.245 58.01ZM354.054 59C353.934 58.49 353.819 57.93 353.709 57.32C353.599 56.71 353.499 56.075 353.409 55.415C353.319 54.745 353.244 54.055 353.184 53.345C353.124 52.635 353.084 51.92 353.064 51.2H354.474C354.484 51.69 354.504 52.215 354.534 52.775C354.574 53.325 354.619 53.88 354.669 54.44C354.719 54.99 354.779 55.525 354.849 56.045C354.919 56.555 354.994 57.02 355.074 57.44C355.374 57.06 355.684 56.615 356.004 56.105C356.334 55.585 356.649 55.045 356.949 54.485C357.249 53.915 357.524 53.345 357.774 52.775C358.024 52.205 358.224 51.68 358.374 51.2H359.784C359.564 51.86 359.284 52.545 358.944 53.255C358.604 53.965 358.234 54.665 357.834 55.355C357.444 56.035 357.029 56.69 356.589 57.32C356.159 57.95 355.739 58.51 355.329 59H354.054ZM361.441 54.905C362.021 54.885 362.551 54.85 363.031 54.8C363.511 54.74 363.926 54.645 364.276 54.515C364.626 54.375 364.896 54.19 365.086 53.96C365.286 53.73 365.386 53.43 365.386 53.06C365.386 52.97 365.366 52.875 365.326 52.775C365.296 52.675 365.236 52.585 365.146 52.505C365.066 52.415 364.951 52.345 364.801 52.295C364.651 52.235 364.466 52.205 364.246 52.205C363.896 52.205 363.566 52.28 363.256 52.43C362.956 52.58 362.686 52.78 362.446 53.03C362.206 53.27 362.001 53.555 361.831 53.885C361.661 54.205 361.531 54.545 361.441 54.905ZM362.866 59.195C362.356 59.195 361.916 59.125 361.546 58.985C361.176 58.835 360.866 58.635 360.616 58.385C360.366 58.125 360.181 57.825 360.061 57.485C359.941 57.145 359.881 56.785 359.881 56.405C359.881 55.705 359.986 55.03 360.196 54.38C360.406 53.73 360.706 53.155 361.096 52.655C361.486 52.155 361.961 51.76 362.521 51.47C363.081 51.17 363.716 51.02 364.426 51.02C364.836 51.02 365.186 51.075 365.476 51.185C365.776 51.285 366.016 51.425 366.196 51.605C366.386 51.785 366.526 51.995 366.616 52.235C366.706 52.465 366.751 52.705 366.751 52.955C366.751 53.425 366.666 53.825 366.496 54.155C366.326 54.475 366.101 54.745 365.821 54.965C365.541 55.185 365.211 55.355 364.831 55.475C364.461 55.595 364.071 55.69 363.661 55.76C363.261 55.83 362.851 55.88 362.431 55.91C362.021 55.93 361.631 55.95 361.261 55.97C361.251 56.05 361.246 56.115 361.246 56.165C361.246 56.215 361.246 56.255 361.246 56.285C361.246 56.515 361.271 56.735 361.321 56.945C361.381 57.145 361.486 57.325 361.636 57.485C361.786 57.635 361.991 57.755 362.251 57.845C362.521 57.935 362.871 57.98 363.301 57.98C363.491 57.98 363.686 57.965 363.886 57.935C364.096 57.895 364.291 57.85 364.471 57.8C364.661 57.74 364.826 57.685 364.966 57.635C365.116 57.575 365.221 57.52 365.281 57.47L365.401 58.655C365.201 58.765 364.876 58.88 364.426 59C363.986 59.13 363.466 59.195 362.866 59.195ZM371.755 51.035C371.875 51.035 372.01 51.04 372.16 51.05C372.31 51.06 372.455 51.08 372.595 51.11C372.745 51.13 372.88 51.155 373 51.185C373.12 51.205 373.21 51.23 373.27 51.26L372.865 52.475C372.665 52.395 372.435 52.335 372.175 52.295C371.915 52.255 371.665 52.235 371.425 52.235C371.215 52.235 371.005 52.25 370.795 52.28C370.595 52.31 370.42 52.35 370.27 52.4L368.68 59H367.285L369.085 51.5C369.485 51.36 369.915 51.25 370.375 51.17C370.835 51.08 371.295 51.035 371.755 51.035ZM378.103 59.09C378.053 58.98 378.003 58.86 377.953 58.73C377.903 58.59 377.863 58.445 377.833 58.295C377.613 58.495 377.318 58.695 376.948 58.895C376.578 59.095 376.123 59.195 375.583 59.195C375.143 59.195 374.763 59.125 374.443 58.985C374.133 58.845 373.878 58.65 373.678 58.4C373.478 58.15 373.328 57.855 373.228 57.515C373.138 57.175 373.093 56.8 373.093 56.39C373.093 55.72 373.203 55.065 373.423 54.425C373.653 53.785 373.993 53.215 374.443 52.715C374.893 52.215 375.458 51.81 376.138 51.5C376.818 51.19 377.613 51.035 378.523 51.035C378.793 51.035 379.108 51.065 379.468 51.125C379.828 51.185 380.138 51.285 380.398 51.425L379.243 56.135C379.193 56.365 379.148 56.585 379.108 56.795C379.078 57.005 379.063 57.225 379.063 57.455C379.063 57.685 379.083 57.92 379.123 58.16C379.163 58.39 379.233 58.64 379.333 58.91L378.103 59.09ZM375.868 58.01C376.288 58.01 376.648 57.92 376.948 57.74C377.248 57.56 377.508 57.35 377.728 57.11C377.738 56.94 377.753 56.765 377.773 56.585C377.803 56.395 377.838 56.205 377.878 56.015L378.778 52.295C378.728 52.275 378.643 52.26 378.523 52.25C378.413 52.24 378.313 52.235 378.223 52.235C377.653 52.235 377.138 52.345 376.678 52.565C376.218 52.785 375.823 53.08 375.493 53.45C375.173 53.81 374.923 54.235 374.743 54.725C374.573 55.205 374.488 55.71 374.488 56.24C374.488 56.45 374.508 56.665 374.548 56.885C374.588 57.095 374.658 57.285 374.758 57.455C374.868 57.615 375.008 57.75 375.178 57.86C375.358 57.96 375.588 58.01 375.868 58.01ZM382.812 60.62C383.222 60.62 383.582 60.57 383.892 60.47C384.202 60.37 384.467 60.225 384.687 60.035C384.917 59.845 385.102 59.62 385.242 59.36C385.382 59.1 385.492 58.805 385.572 58.475L385.632 58.19C385.432 58.3 385.162 58.41 384.822 58.52C384.482 58.63 384.132 58.685 383.772 58.685C382.962 58.685 382.337 58.485 381.897 58.085C381.467 57.675 381.252 57.105 381.252 56.375C381.252 55.705 381.362 55.05 381.582 54.41C381.802 53.77 382.137 53.2 382.587 52.7C383.037 52.2 383.597 51.8 384.267 51.5C384.937 51.19 385.722 51.035 386.622 51.035C386.762 51.035 386.917 51.045 387.087 51.065C387.267 51.085 387.447 51.115 387.627 51.155C387.817 51.185 387.997 51.23 388.167 51.29C388.347 51.35 388.502 51.42 388.632 51.5L386.997 58.325C386.867 58.865 386.707 59.35 386.517 59.78C386.327 60.21 386.067 60.575 385.737 60.875C385.407 61.175 384.982 61.405 384.462 61.565C383.942 61.735 383.292 61.82 382.512 61.82C382.082 61.82 381.657 61.76 381.237 61.64C380.817 61.53 380.462 61.39 380.172 61.22L380.697 60.05C380.927 60.22 381.232 60.355 381.612 60.455C381.992 60.565 382.392 60.62 382.812 60.62ZM384.072 57.515C384.472 57.515 384.837 57.445 385.167 57.305C385.507 57.155 385.767 57.015 385.947 56.885L387.042 52.325C386.942 52.305 386.827 52.285 386.697 52.265C386.567 52.245 386.442 52.235 386.322 52.235C385.782 52.235 385.287 52.34 384.837 52.55C384.387 52.75 383.997 53.025 383.667 53.375C383.347 53.715 383.097 54.115 382.917 54.575C382.737 55.025 382.647 55.495 382.647 55.985C382.647 56.525 382.762 56.915 382.992 57.155C383.232 57.395 383.592 57.515 384.072 57.515ZM391.089 54.905C391.669 54.885 392.199 54.85 392.679 54.8C393.159 54.74 393.574 54.645 393.924 54.515C394.274 54.375 394.544 54.19 394.734 53.96C394.934 53.73 395.034 53.43 395.034 53.06C395.034 52.97 395.014 52.875 394.974 52.775C394.944 52.675 394.884 52.585 394.794 52.505C394.714 52.415 394.599 52.345 394.449 52.295C394.299 52.235 394.114 52.205 393.894 52.205C393.544 52.205 393.214 52.28 392.904 52.43C392.604 52.58 392.334 52.78 392.094 53.03C391.854 53.27 391.649 53.555 391.479 53.885C391.309 54.205 391.179 54.545 391.089 54.905ZM392.514 59.195C392.004 59.195 391.564 59.125 391.194 58.985C390.824 58.835 390.514 58.635 390.264 58.385C390.014 58.125 389.829 57.825 389.709 57.485C389.589 57.145 389.529 56.785 389.529 56.405C389.529 55.705 389.634 55.03 389.844 54.38C390.054 53.73 390.354 53.155 390.744 52.655C391.134 52.155 391.609 51.76 392.169 51.47C392.729 51.17 393.364 51.02 394.074 51.02C394.484 51.02 394.834 51.075 395.124 51.185C395.424 51.285 395.664 51.425 395.844 51.605C396.034 51.785 396.174 51.995 396.264 52.235C396.354 52.465 396.399 52.705 396.399 52.955C396.399 53.425 396.314 53.825 396.144 54.155C395.974 54.475 395.749 54.745 395.469 54.965C395.189 55.185 394.859 55.355 394.479 55.475C394.109 55.595 393.719 55.69 393.309 55.76C392.909 55.83 392.499 55.88 392.079 55.91C391.669 55.93 391.279 55.95 390.909 55.97C390.899 56.05 390.894 56.115 390.894 56.165C390.894 56.215 390.894 56.255 390.894 56.285C390.894 56.515 390.919 56.735 390.969 56.945C391.029 57.145 391.134 57.325 391.284 57.485C391.434 57.635 391.639 57.755 391.899 57.845C392.169 57.935 392.519 57.98 392.949 57.98C393.139 57.98 393.334 57.965 393.534 57.935C393.744 57.895 393.939 57.85 394.119 57.8C394.309 57.74 394.474 57.685 394.614 57.635C394.764 57.575 394.869 57.52 394.929 57.47L395.049 58.655C394.849 58.765 394.524 58.88 394.074 59C393.634 59.13 393.114 59.195 392.514 59.195Z" fill="#F44336"/>
<path d="M463.685 51.005C464.175 51.005 464.595 51.075 464.945 51.215C465.305 51.355 465.6 51.55 465.83 51.8C466.06 52.04 466.23 52.33 466.34 52.67C466.46 53 466.52 53.365 466.52 53.765C466.52 54.455 466.415 55.125 466.205 55.775C465.995 56.415 465.67 56.985 465.23 57.485C464.8 57.985 464.25 58.385 463.58 58.685C462.92 58.985 462.135 59.135 461.225 59.135C461.115 59.135 460.995 59.13 460.865 59.12C460.735 59.11 460.62 59.095 460.52 59.075L459.875 61.775H458.48L460.94 51.53C461.36 51.36 461.815 51.23 462.305 51.14C462.805 51.05 463.265 51.005 463.685 51.005ZM460.805 57.905C460.905 57.925 461.01 57.94 461.12 57.95C461.24 57.95 461.355 57.95 461.465 57.95C462.035 57.95 462.545 57.84 462.995 57.62C463.445 57.4 463.825 57.105 464.135 56.735C464.455 56.355 464.7 55.925 464.87 55.445C465.04 54.955 465.125 54.445 465.125 53.915C465.125 53.695 465.1 53.48 465.05 53.27C465 53.06 464.905 52.875 464.765 52.715C464.635 52.555 464.455 52.43 464.225 52.34C463.995 52.24 463.7 52.19 463.34 52.19C463.09 52.19 462.86 52.215 462.65 52.265C462.44 52.305 462.265 52.345 462.125 52.385L460.805 57.905ZM471.798 51.035C471.918 51.035 472.053 51.04 472.203 51.05C472.353 51.06 472.498 51.08 472.638 51.11C472.788 51.13 472.923 51.155 473.043 51.185C473.163 51.205 473.253 51.23 473.313 51.26L472.908 52.475C472.708 52.395 472.478 52.335 472.218 52.295C471.958 52.255 471.708 52.235 471.468 52.235C471.258 52.235 471.048 52.25 470.838 52.28C470.638 52.31 470.463 52.35 470.313 52.4L468.723 59H467.328L469.128 51.5C469.528 51.36 469.958 51.25 470.418 51.17C470.878 51.08 471.338 51.035 471.798 51.035ZM475.821 59.195C475.001 59.195 474.356 58.955 473.886 58.475C473.426 57.985 473.196 57.315 473.196 56.465C473.196 55.885 473.276 55.275 473.436 54.635C473.606 53.995 473.871 53.405 474.231 52.865C474.591 52.325 475.056 51.88 475.626 51.53C476.196 51.18 476.886 51.005 477.696 51.005C478.516 51.005 479.156 51.25 479.616 51.74C480.086 52.22 480.321 52.885 480.321 53.735C480.321 54.315 480.236 54.925 480.066 55.565C479.906 56.205 479.646 56.795 479.286 57.335C478.926 57.875 478.461 58.32 477.891 58.67C477.321 59.02 476.631 59.195 475.821 59.195ZM476.061 58.01C476.511 58.01 476.911 57.88 477.261 57.62C477.621 57.36 477.921 57.03 478.161 56.63C478.411 56.22 478.601 55.77 478.731 55.28C478.861 54.79 478.926 54.315 478.926 53.855C478.926 53.345 478.816 52.94 478.596 52.64C478.376 52.34 477.996 52.19 477.456 52.19C477.006 52.19 476.601 52.32 476.241 52.58C475.891 52.84 475.591 53.175 475.341 53.585C475.101 53.985 474.916 54.43 474.786 54.92C474.656 55.41 474.591 55.885 474.591 56.345C474.591 56.855 474.701 57.26 474.921 57.56C475.141 57.86 475.521 58.01 476.061 58.01Z" fill="#F44336"/>
<defs>
<filter id="filter0_d_1_2" x="168" y="72" width="304" height="28" filterUnits="userSpaceOnUse" color-interpolation-filters="sRGB">
<feFlood flood-opacity="0" result="BackgroundImageFix"/>
<feColorMatrix in="SourceAlpha" type="matrix" values="0 0 0 0 0 0 0 0 0 0 0 0 0 0 0 0 0 0 127 0" result="hardAlpha"/>
<feOffset/>
<feGaussianBlur stdDeviation="1"/>
<feComposite in2="hardAlpha" operator="out"/>
<feColorMatrix type="matrix" values="0 0 0 0 0 0 0 0 0 0.6 0 0 0 0 1 0 0 0 1 0"/>
<feBlend mode="normal" in2="BackgroundImageFix" result="effect1_dropShadow_1_2"/>
<feBlend mode="normal" in="SourceGraphic" in2="effect1_dropShadow_1_2" result="shape"/>
</filter>
<filter id="filter1_d_1_2" x="168" y="101" width="204" height="28" filterUnits="userSpaceOnUse" color-interpolation-filters="sRGB">
<feFlood flood-opacity="0" result="BackgroundImageFix"/>
<feColorMatrix in="SourceAlpha" type="matrix" values="0 0 0 0 0 0 0 0 0 0 0 0 0 0 0 0 0 0 127 0" result="hardAlpha"/>
<feOffset/>
<feGaussianBlur stdDeviation="1"/>
<feComposite in2="hardAlpha" operator="out"/>
<feColorMatrix type="matrix" values="0 0 0 0 0 0 0 0 0 0.466667 0 0 0 0 1 0 0 0 1 0"/>
<feBlend mode="normal" in2="BackgroundImageFix" result="effect1_dropShadow_1_2"/>
<feBlend mode="normal" in="SourceGraphic" in2="effect1_dropShadow_1_2" result="shape"/>
</filter>
<filter id="filter2_d_1_2" x="168" y="130" width="304" height="28" filterUnits="userSpaceOnUse" color-interpolation-filters="sRGB">
<feFlood flood-opacity="0" result="BackgroundImageFix"/>
<feColorMatrix in="SourceAlpha" type="matrix" values="0 0 0 0 0 0 0 0 0 0 0 0 0 0 0 0 0 0 127 0" result="hardAlpha"/>
<feOffset/>
<feGaussianBlur stdDeviation="1"/>
<feComposite in2="hardAlpha" operator="out"/>
<feColorMatrix type="matrix" values="0 0 0 0 0 0 0 0 0 0.6 0 0 0 0 1 0 0 0 1 0"/>
<feBlend mode="normal" in2="BackgroundImageFix" result="effect1_dropShadow_1_2"/>
<feBlend mode="normal" in="SourceGraphic" in2="effect1_dropShadow_1_2" result="shape"/>
</filter>
<filter id="filter3_d_1_2" x="168" y="159" width="204" height="28" filterUnits="userSpaceOnUse" color-interpolation-filters="sRGB">
<feFlood flood-opacity="0" result="BackgroundImageFix"/>
<feColorMatrix in="SourceAlpha" type="matrix" values="0 0 0 0 0 0 0 0 0 0 0 0 0 0 0 0 0 0 127 0" result="hardAlpha"/>
<feOffset/>
<feGaussianBlur stdDeviation="1"/>
<feComposite in2="hardAlpha" operator="out"/>
<feColorMatrix type="matrix" values="0 0 0 0 0 0 0 0 0 0.466667 0 0 0 0 1 0 0 0 1 0"/>
<feBlend mode="normal" in2="BackgroundImageFix" result="effect1_dropShadow_1_2"/>
<feBlend mode="normal" in="SourceGraphic" in2="effect1_dropShadow_1_2" result="shape"/>
</filter>
<filter id="filter4_d_1_2" x="168" y="188" width="104" height="28" filterUnits="userSpaceOnUse" color-interpolation-filters="sRGB">
<feFlood flood-opacity="0" result="BackgroundImageFix"/>
<feColorMatrix in="SourceAlpha" type="matrix" values="0 0 0 0 0 0 0 0 0 0 0 0 0 0 0 0 0 0 127 0" result="hardAlpha"/>
<feOffset/>
<feGaussianBlur stdDeviation="1"/>
<feComposite in2="hardAlpha" operator="out"/>
<feColorMatrix type="matrix" values="0 0 0 0 0 0 0 0 0 0.333333 0 0 0 0 1 0 0 0 1 0"/>
<feBlend mode="normal" in2="BackgroundImageFix" result="effect1_dropShadow_1_2"/>
<feBlend mode="normal" in="SourceGraphic" in2="effect1_dropShadow_1_2" result="shape"/>
</filter>
<filter id="filter5_d_1_2" x="168" y="217" width="204" height="28" filterUnits="userSpaceOnUse" color-interpolation-filters="sRGB">
<feFlood flood-opacity="0" result="BackgroundImageFix"/>
<feColorMatrix in="SourceAlpha" type="matrix" values="0 0 0 0 0 0 0 0 0 0 0 0 0 0 0 0 0 0 127 0" result="hardAlpha"/>
<feOffset/>
<feGaussianBlur stdDeviation="1"/>
<feComposite in2="hardAlpha" operator="out"/>
<feColorMatrix type="matrix" values="0 0 0 0 0 0 0 0 0 0.466667 0 0 0 0 1 0 0 0 1 0"/>
<feBlend mode="normal" in2="BackgroundImageFix" result="effect1_dropShadow_1_2"/>
<feBlend mode="normal" in="SourceGraphic" in2="effect1_dropShadow_1_2" result="shape"/>
</filter>
<filter id="filter6_d_1_2" x="168" y="246" width="304" height="28" filterUnits="userSpaceOnUse" color-interpolation-filters="sRGB">
<feFlood flood-opacity="0" result="BackgroundImageFix"/>
<feColorMatrix in="SourceAlpha" type="matrix" values="0 0 0 0 0 0 0 0 0 0 0 0 0 0 0 0 0 0 127 0" result="hardAlpha"/>
<feOffset/>
<feGaussianBlur stdDeviation="1"/>
<feComposite in2="hardAlpha" operator="out"/>
<feColorMatrix type="matrix" values="0 0 0 0 0 0 0 0 0 0.6 0 0 0 0 1 0 0 0 1 0"/>
<feBlend mode="normal" in2="BackgroundImageFix" result="effect1_dropShadow_1_2"/>
<feBlend mode="normal" in="SourceGraphic" in2="effect1_dropShadow_1_2" result="shape"/>
</filter>
<filter id="filter7_d_1_2" x="168" y="275" width="104" height="28" filterUnits="userSpaceOnUse" color-interpolation-filters="sRGB">
<feFlood flood-opacity="0" result="BackgroundImageFix"/>
<feColorMatrix in="SourceAlpha" type="matrix" values="0 0 0 0 0 0 0 0 0 0 0 0 0 0 0 0 0 0 127 0" result="hardAlpha"/>
<feOffset/>
<feGaussianBlur stdDeviation="1"/>
<feComposite in2="hardAlpha" operator="out"/>
<feColorMatrix type="matrix" values="0 0 0 0 0 0 0 0 0 0.333333 0 0 0 0 1 0 0 0 1 0"/>
<feBlend mode="normal" in2="BackgroundImageFix" result="effect1_dropShadow_1_2"/>
<feBlend mode="normal" in="SourceGraphic" in2="effect1_dropShadow_1_2" result="shape"/>
</filter>
<filter id="filter8_d_1_2" x="168" y="304" width="104" height="28" filterUnits="userSpaceOnUse" color-interpolation-filters="sRGB">
<feFlood flood-opacity="0" result="BackgroundImageFix"/>
<feColorMatrix in="SourceAlpha" type="matrix" values="0 0 0 0 0 0 0 0 0 0 0 0 0 0 0 0 0 0 127 0" result="hardAlpha"/>
<feOffset/>
<feGaussianBlur stdDeviation="1"/>
<feComposite in2="hardAlpha" operator="out"/>
<feColorMatrix type="matrix" values="0 0 0 0 0 0 0 0 0 0.333333 0 0 0 0 1 0 0 0 1 0"/>
<feBlend mode="normal" in2="BackgroundImageFix" result="effect1_dropShadow_1_2"/>
<feBlend mode="normal" in="SourceGraphic" in2="effect1_dropShadow_1_2" result="shape"/>
</filter>
<filter id="filter9_d_1_2" x="168" y="333" width="304" height="28" filterUnits="userSpaceOnUse" color-interpolation-filters="sRGB">
<feFlood flood-opacity="0" result="BackgroundImageFix"/>
<feColorMatrix in="SourceAlpha" type="matrix" values="0 0 0 0 0 0 0 0 0 0 0 0 0 0 0 0 0 0 127 0" result="hardAlpha"/>
<feOffset/>
<feGaussianBlur stdDeviation="1"/>
<feComposite in2="hardAlpha" operator="out"/>
<feColorMatrix type="matrix" values="0 0 0 0 0 0 0 0 0 0.6 0 0 0 0 1 0 0 0 1 0"/>
<feBlend mode="normal" in2="BackgroundImageFix" result="effect1_dropShadow_1_2"/>
<feBlend mode="normal" in="SourceGraphic" in2="effect1_dropShadow_1_2" result="shape"/>
</filter>
<filter id="filter10_d_1_2" x="168" y="362" width="104" height="28" filterUnits="userSpaceOnUse" color-interpolation-filters="sRGB">
<feFlood flood-opacity="0" result="BackgroundImageFix"/>
<feColorMatrix in="SourceAlpha" type="matrix" values="0 0 0 0 0 0 0 0 0 0 0 0 0 0 0 0 0 0 127 0" result="hardAlpha"/>
<feOffset/>
<feGaussianBlur stdDeviation="1"/>
<feComposite in2="hardAlpha" operator="out"/>
<feColorMatrix type="matrix" values="0 0 0 0 0 0 0 0 0 0.333333 0 0 0 0 1 0 0 0 1 0"/>
<feBlend mode="normal" in2="BackgroundImageFix" result="effect1_dropShadow_1_2"/>
<feBlend mode="normal" in="SourceGraphic" in2="effect1_dropShadow_1_2" result="shape"/>
</filter>
<filter id="filter11_d_1_2" x="168" y="391" width="204" height="28" filterUnits="userSpaceOnUse" color-interpolation-filters="sRGB">
<feFlood flood-opacity="0" result="BackgroundImageFix"/>
<feColorMatrix in="SourceAlpha" type="matrix" values="0 0 0 0 0 0 0 0 0 0 0 0 0 0 0 0 0 0 127 0" result="hardAlpha"/>
<feOffset/>
<feGaussianBlur stdDeviation="1"/>
<feComposite in2="hardAlpha" operator="out"/>
<feColorMatrix type="matrix" values="0 0 0 0 0 0 0 0 0 0.466667 0 0 0 0 1 0 0 0 1 0"/>
<feBlend mode="normal" in2="BackgroundImageFix" result="effect1_dropShadow_1_2"/>
<feBlend mode="normal" in="SourceGraphic" in2="effect1_dropShadow_1_2" result="shape"/>
</filter>
<filter id="filter12_d_1_2" x="168" y="420" width="104" height="28" filterUnits="userSpaceOnUse" color-interpolation-filters="sRGB">
<feFlood flood-opacity="0" result="BackgroundImageFix"/>
<feColorMatrix in="SourceAlpha" type="matrix" values="0 0 0 0 0 0 0 0 0 0 0 0 0 0 0 0 0 0 127 0" result="hardAlpha"/>
<feOffset/>
<feGaussianBlur stdDeviation="1"/>
<feComposite in2="hardAlpha" operator="out"/>
<feColorMatrix type="matrix" values="0 0 0 0 0 0 0 0 0 0.333333 0 0 0 0 1 0 0 0 1 0"/>
<feBlend mode="normal" in2="BackgroundImageFix" result="effect1_dropShadow_1_2"/>
<feBlend mode="normal" in="SourceGraphic" in2="effect1_dropShadow_1_2" result="shape"/>
</filter>
<filter id="filter13_d_1_2" x="168" y="449" width="304" height="28" filterUnits="userSpaceOnUse" color-interpolation-filters="sRGB">
<feFlood flood-opacity="0" result="BackgroundImageFix"/>
<feColorMatrix in="SourceAlpha" type="matrix" values="0 0 0 0 0 0 0 0 0 0 0 0 0 0 0 0 0 0 127 0" result="hardAlpha"/>
<feOffset/>
<feGaussianBlur stdDeviation="1"/>
<feComposite in2="hardAlpha" operator="out"/>
<feColorMatrix type="matrix" values="0 0 0 0 0 0 0 0 0 0.6 0 0 0 0 1 0 0 0 1 0"/>
<feBlend mode="normal" in2="BackgroundImageFix" result="effect1_dropShadow_1_2"/>
<feBlend mode="normal" in="SourceGraphic" in2="effect1_dropShadow_1_2" result="shape"/>
</filter>
</defs>
</svg>
